/* XPM */
static char *bb68a0bcf5754b1f8efa1d45441e667dGhABxMpmkx0Ib0kc[] = {
/* columns rows colors chars-per-pixel */
"60 60 5 1 ",
"  c None",
". c #386A30",
"X c #557B48",
"o c #66942A",
"O c #84BF44",
/* pixels */
"OOoo.ooOOO.OOooOOo.oOOO.oOOo.oOXoOoO.oo.oOoOoooOOOOOooOOoooo",
"ooOOoOooOoOoOOOoOoO.OOOOoOoOOooXooOoOOo.ooOoOOOoOOOOOOooo.OO",
"oXOoOooOoOOOOoOOOoOOOOoOOOOooOoOoXOOOOOooooOoOOOoOOoOoXOoooO",
"OoOoOoOOoOoOOoOoOOOoOOooOOoOooOOOoOoOOOOOOOoooOOOoOOoooOOXOo",
"oOOooOOOoOOoOOXOOOOooOXOOoOOOOoooOOooOOOoOoooOoXOOoOOXOoXOOX",
"oOOoOooOOOooO.OOXoOO oOOOooOOOOOoOOoOooOOOoOOooooOOOoOXOooOO",
"XoOOoOoooOoOooOOOOooOOOO.oOoOXOOXoOOoOoooOOO.oOXOOoOOOOXooOX",
"OOoXOOOoOOOoOoOoOOXOOO.OoOoO..oOOOoXOOOoOOOOoOoXOoXoOOoX.XOO",
"oXOoOOOXOXOOoooOooXOooOOOOOOoooOoXOoOOOXOOooOoXOoOOOooOo.OXO",
"oooOoOXOOooXOooOOoOXOXXooOOOOoOOoooOoOXOOooOoOoOooOOOo.OooOX",
"oXOOOOOOooOOoOooXOooOOoOOoOoOOoOoXOOOOOOoOXo.oOooOOooOXOooOO",
"OOOoOXOoooOooXXOOOooXXOOX..oOOooOOOoOXOooO..oOXOOooOOOOOXOOO",
"oOooOXoOOOoOOXOOoOOooOOOo.O.oOoOoOooOXoOOO.OOoXOOoooOOOXOoOo",
"OoOOoOo.OOOOooOoOooOOoOXXOoOOoOoOoOOOoo.OoOOoXOOXOOoOoXOoOoO",
"XOOXOooOOooOoO.oOooOOoOOXoOooXOXXOooOooOOOoOOOooOooOOoOOoOOo",
".oOOXoOOOXOooooO.oOOOooOOooOooOoooOOXOOOOoOOOOooOOOOooOOOoXO",
"O.OOXXOoOOOOXooOXOooOOooOOOoXXOOOOOOXXOoOoOOXoo..XOOOOOOoOOo",
"OoOXXOoXoOOoX.XOOOOOooOOXOoOoooOOoOXXooooooOXX.oOOOXoXoOoOoo",
"oOoXOoOOOooOo.OXOOOoooOOOoOooOOoOOOXooOoOOooOoXoooOOOoooXoOO",
"OoOoOooOOOo.OooOXOooOOOOoXooOoooOoooOoooooOOOooOOOooOoOOOOOo",
"o.oOooOOooOXOooOOoOOooOOooOOooOOo.oOooOOooOOoOOOooOooOOooOXO",
".oOXOOooOOOOOXOOOoOOoOOoOOOOooOO.oOoOOoOOooOOoo.OOoo.OOooOOO",
"OOoXOOoooOOOXXoOoooOOOooOoXoOoo.oOoooOooOoOoOO.oOOOooOoOoXOo",
"OoXOOXOOoOoXOoXoOooOOoooOOoOOXoooOXOooOOOOOooXXoOooOooOOOXoO",
"OOOooOooOOoOOoOOoooooooXooOOOOOooOOooOOoOOoooOoXoooOoOOXXOo.",
"OOOooOOOOooOOOoXOooOoOOOXoOOOOoOoOOooOOOOOOoOOOOXOoooOO.oOOO",
"OXoo..XOOOXXOoOOoOXoOoOooXOOoOoOOooo..XOOooOoXOOOOOXooOXOOoO",
"Ooo.oOOXXoXoXoOooXoooOooOoooOoOOOooooOOXXOOOOoooOOoX.XOOOoOo",
"oOoXoooOOOoooXoOOXoOOOOooooOOXXOoOoXoooOOOOoooOOooOo.OOOoOoo",
"OOooOOOooooOOOOOoooOOooOXXooOoOOoOooOOOooOoooooOOo.OOOOoOooO",
"OoOOOooOooOOooOXOOooXOooOOoOoOoOooOOOooOoXOOoOoooOXOoooOoOOo",
"OOoo.OOoo.OoooooOooOOoOOoO.O.oOooOoo.OOooOoXOooooOOXooOOoOOX",
"oOO.oOOOooOoooXOoooOooXoooOo.OooOOO.oOOOoOOoOOoOoXXOo.OOOOoo",
"ooOOoOooXXooOOXoOoOoOOXoOoOOOoOOooOOoOooOooOOoooOOoOOOooOOOO",
"ooOoOoooOXooXXOo.OOOOoooOOoOOoooooOoOoooOOoOOXooOXOooOOoooOX",
"oOOOOXOooooO.oOOOooOOOOoOOXOOOOooOOOoOoooooooX.XOOOOOooOOXOO",
"OoXOOOOOXooOXOooOOoooOXOOXooOooOXoXOOoooXXOooo.OXOOOoooOO.Xo",
"OOoooOOoX.XOOOOOooOOXOOOXoXOoOOXOOooXOooOOOOoOooOXOooOOoOOOX",
"oooOOooOo.OXOOOoooOO.XoXXOOOoOOoOooOOoOXoXooOOooOOoOOooOoOXO",
"ooooOOo.OooOXOooOOoOOOXoOXOoooXOoooOooXoooOOOOXOOOooOoOOoooX",
"OOOoooOXOooOOoOOooOoOXOOooOooXXoOoOoOOXoOOoOOXOoOoooXOOoooXo",
"XOoOOOOOOXOOOooOoOOooooOOOoOOoOooOoOOoooOOoOoOoOoOXXoOOOooXO",
"oOoOoOOOXOoOoooOOOoooooOOXOooOo.oOoooOooO.OOoOoOOoooOoooOoOX",
"OOoooOoXOoOoOoooOOOooXOoXOOXOo.oOOooOoOoOoOooOOoXOooOoOOOooO",
"OOoO..oOOoOOoooOoooOoOXOooOOooOoOOoOoXOO.OOOXOoOOoOXoXOOo.O.",
"ooOOOooOOOoXOooOoOOOooOXoOOOXOooooOOooo.o.XoXXoOooXoooOoooOX",
"OooOOOXXOoOOoOXoXOOo.O.XXOoOOOOooOoOoXXoOooOOoooOoooOoXooOoX",
"..oOXoXoXoOooXoooOoooOXXOoXoOOoOOooOOOoXOO.OoooOO.oOOOooOooo",
"o.OOXoOOoooOoooOoXooOXOOoOOOooOooooOXoOOooOooOOOOoOoOOXXo.oo",
"oo.OOoOOooOO.oOOOooOoooOooOOOO.OooOOOoOOooOXOoOooO.oXOO..oOX",
"oOoOOOOOOOOOoOoOOXXo.ooooOOooOXOoOoOOOOOOOoOOoooOOoo.OO.OOOo",
"OoXOOooOoOooO.oXOO..oOXOOooOOOOOXoXOOooO.OOoOoOOo.OooOoOOooO",
"OoOOoOOOoooOOoo.OO.OOoXOOoooOOOXOoOOoO..ooOOOOOOoO.OoOoooOOo",
"oOooOXOoooOo.OooOoOOoXOXXOOoOoXOoOooOXOoooXOOOooOOooOoOOoOOo",
"ooOoOOooOOooO.OoOOoOOOooOooOOoOOooOoOOooooooO.ooOooOoOOoOooO",
"OOo..OooOoo.OooOOOoOOOooOOOOooOOOOoXXOooOOoO..ooOOoOOXOoOOOO",
"oOo..OooooOX.OooOoOoXoo..XOOOXXOoOo..XooooOO.ooOOoOoOoOoOoOO",
"oOOoOOoOOoXOooOooXXXoo.oOOXXoXoXoOOoXXXOoooooOoOoooOOoooOOoo",
"oOOooOOOoOXOOoOoXXOoooXoooOOOoooXOOooOOOoOXOOoOOoOOoooOoooOO",
"OoOXOOOoOooooOOOoOOOOooOOOooooOOOoOXOOOoOoOOOOOOOoOOOooOOOoO"
};
