/* XPM */
static char *_2bdb0deaee34db5ddb8217a361887898WmXpw9l3oDNKF8v[] = {
/* columns rows colors chars-per-pixel */
"60 60 211 2 ",
"   c None",
".  c black",
"X  c #0F0000",
"o  c #160000",
"O  c #001209",
"+  c #110018",
"@  c #00141E",
"#  c #2C0200",
"$  c #280809",
"%  c #2D1A17",
"&  c #331C17",
"*  c #360A04",
"=  c #2B201A",
"-  c #32221A",
";  c #000426",
":  c #0D1B2E",
">  c #1E1B25",
",  c #391725",
"<  c #192935",
"1  c #2A2728",
"2  c #3B2B2B",
"3  c #352626",
"4  c #3A312C",
"5  c #252D39",
"6  c #421A1C",
"7  c #431C07",
"8  c #412117",
"9  c #4D2A1D",
"0  c #46251A",
"q  c #773500",
"w  c #421821",
"e  c #4C2C2B",
"r  c #4A2A25",
"t  c #542E29",
"y  c #49322B",
"u  c #54332D",
"i  c #5C352B",
"p  c #4C3432",
"a  c #4D3B37",
"s  c #5A3B34",
"d  c #523C3B",
"f  c #573C35",
"g  c #6D3A2B",
"h  c #663726",
"j  c #743D2D",
"k  c #623C33",
"l  c #59433A",
"z  c #6E462E",
"x  c #79422E",
"c  c #77412E",
"v  c #6C4335",
"b  c #69493B",
"n  c #784A36",
"m  c #68523E",
"M  c #7B563C",
"N  c #603F45",
"B  c #694C46",
"V  c #744E42",
"C  c #6D534A",
"Z  c #6D5646",
"A  c #745245",
"S  c #73564B",
"D  c #715A4A",
"F  c #7E5A4C",
"G  c #7B5748",
"H  c #6E5E51",
"J  c #745A52",
"K  c #7A5C54",
"L  c #7D6249",
"P  c #7D6454",
"I  c #7D7361",
"U  c #824E3D",
"Y  c #86573B",
"T  c #975638",
"R  c #8A5329",
"E  c #825C4B",
"W  c #845D45",
"Q  c #934C51",
"!  c #855F51",
"~  c #875852",
"^  c #8B494D",
"/  c #85644E",
"(  c #996746",
")  c #9B6D4C",
"_  c #986948",
"`  c #826256",
"'  c #8B6555",
"]  c #84665A",
"[  c #8C6C5B",
"{  c #876B55",
"}  c #926B5B",
"|  c #9B6B5C",
" . c #8C705D",
".. c #937456",
"X. c #9B7455",
"o. c #91715D",
"O. c #A56A48",
"+. c #A9734E",
"@. c #A06D5E",
"#. c #A47454",
"$. c #AC7552",
"%. c #A37B5B",
"&. c #AC7C5A",
"*. c #A37658",
"=. c #B37A52",
"-. c #BA7A52",
";. c #B67C57",
":. c #B3774C",
">. c #986060",
",. c #8B7766",
"<. c #957663",
"1. c #9B7363",
"2. c #937A65",
"3. c #9D7A66",
"4. c #9A7D69",
"5. c #A26B63",
"6. c #A37B65",
"7. c #A57D6A",
"8. c #A67868",
"9. c #CD7C7C",
"0. c #A1814E",
"q. c #AC815D",
"w. c #BB8053",
"e. c #B5835B",
"r. c #BB835B",
"t. c #A69250",
"y. c #ABA05D",
"u. c #BEAB59",
"i. c #9B816B",
"p. c #9B8973",
"a. c #A38464",
"s. c #AC8263",
"d. c #A4836D",
"f. c #A6896B",
"g. c #B28561",
"h. c #B68966",
"j. c #BA916D",
"k. c #AA8B72",
"l. c #A58B73",
"z. c #B68C74",
"x. c #AB937A",
"c. c #B3937A",
"v. c #BB997F",
"b. c #B4977C",
"n. c #C2855A",
"m. c #C5895D",
"M. c #C98B5D",
"N. c #C58456",
"B. c #C1B15A",
"V. c #C28C63",
"C. c #C98E62",
"Z. c #CD9264",
"A. c #CA946C",
"S. c #C5996F",
"D. c #C2946F",
"F. c #D29466",
"G. c #D49A6B",
"H. c #D99E6D",
"J. c #C59A73",
"K. c #C99B72",
"L. c #C4997C",
"P. c #C39777",
"I. c #D09F72",
"U. c #D5A073",
"Y. c #D3A37B",
"T. c #DCA375",
"R. c #CFC565",
"E. c #D2D475",
"W. c #BB9D83",
"Q. c #B49C81",
"!. c #AB9E86",
"~. c #B9A388",
"^. c #BBAB91",
"/. c #C29B82",
"(. c #C4A285",
"). c #CBA689",
"_. c #CDAA8D",
"`. c #C6A589",
"'. c #D4AD8F",
"]. c #D9AD89",
"[. c #DBAB84",
"{. c #D6B18D",
"}. c #CBAC90",
"|. c #D5AE90",
" X c #CCB192",
".X c #D5B091",
"XX c #DAB394",
"oX c #D4B899",
"OX c #DCBC9B",
"+X c #D3B699",
"@X c #E0AF86",
"#X c #E0B48F",
"$X c #E2BA97",
"%X c #E2BC9B",
"&X c #DDDF84",
"*X c #EBC49D",
"=X c #EBC097",
"-X c #DCC3A3",
";X c #EEC6A2",
":X c #EECAA5",
">X c #E5C8A7",
",X c #F4CEA9",
"<X c #F4CBA7",
"1X c #EBD0AE",
"2X c #F6D2AD",
"3X c #F9D3AD",
"4X c #F4D6B2",
"5X c #FCDAB3",
"6X c #F4D9B6",
"7X c #F7F2A6",
"8X c #FFE9C1",
/* pixels */
"                                                                                                                        ",
"                                                                                                                        ",
"                                            ^.^.                                                                        ",
"                                            p.8X>X,.                                                                    ",
"                                              +X5X6XI                                                                   ",
"                                              !.5X2X>Xb                                                                 ",
"                                                1X,X4XQ.G                                                               ",
"                                                ^.5X=XOX`.[                                                             ",
"                                              . H 4X@X].6X%X#                                                           ",
"                                                V ~.$XM.:X2X<.                                                          ",
"                                                P +XOXZ.Y.*XW..                                                         ",
"                                                  }.5XU.n.Y.`.6                                                         ",
"                                                  4.5X].w.A.).G                                                         ",
"                                                  S $XY.V.m.P.7.G                                                       ",
"                                                  o /.A.r.e.L.z.v                                                       ",
"                                                  7 } P.;.&.j.*.t                                                       ",
"                                                  9 ( h.X.' W g e                                                       ",
"                                                    L j.S.K.J...                                                        ",
"                                                  ..I.G.Z.F.G.U.s.                                                      ",
"                                              X X.T.M.M.C.C.C.m.F.e.# W                                                 ",
"                                            q.b.q.N.m.C.Z.C.C.m.m.#.b.e.q.                                              ",
"                                          K.%.2Xi.O.C.n.m.m.n.m.:.P 2Xa.H.f.                                            ",
"                                        a.G.d.,X2.b n.m.n.n.n.n.M J <Xc.=.K.                                            ",
"                                        a.V.k.2X .S ) =.+.+.=.) C C ;Xc.O.S.                                            ",
"                                          e.k.OXZ S <./ o.[ / { K l .Xd.$.h.                                            ",
"                                          M 3. .% B <.P ] ] K <.J 2 D } X.                                              ",
"                                            F ' Z f C ` ` ] ` C , A E ! O                                               ",
"                                          . p ! ] ,.,.K ] ] J p.W.<.F b .                                               ",
"                                           X4 f s.[.*Xz.J J 6.%XT.A.F . `.~.                                            ",
"                                        p.5XP X.w.R O.G.&.*.Z.O.q O.h.m ,XOX                                            ",
"                                          l g.N.t.7Xu.O.F.Z.$.t.7Xy.-.e.l                                               ",
"                                          b T.M.( E.R.O.M.M.O.B.&X0.-.U.M                                               ",
"                                          h h.#XA.T O.M.m.n.M.$.T ;.].L.n                                               ",
"                                          * } _.*XZ.n.r.$.#.=.n.N.]._.1.r                                               ",
"                                          = b ' %Xs.( E d d A ) _ OX6.i y                                               ",
"                                          & p e 8.' E 2 < 5 > E ' 6.k B y                                               ",
"                                          . P (.e b S d 3 3 p G G w W.|.3                                               ",
"                                          % 3.;Xk.. y 1 1 2 1 f . l.;X$XD                                               ",
"                                        { m 2.XX%X{ . ~ ^ Q ~ . D %X%X`. .-                                             ",
"                                        L $ d.XXXX'.4 >.9.9.5.@ _.%XXX`.B =                                             ",
"                                        6.Y d.v.(.%Xc.: N B ; c.%XXXb./.M %.                                            ",
"                                        D.=.[ [ L..XXX/.2.H v.OX'.'.1.] _ K.                                            ",
"                                        h.C.) + 1.|.'.'.|._.XX).'.z.e l r.j.                                            ",
"                                        q.m.m._ v 1.'.XX|.|.'.XX/.V Y e.C.g.                                            ",
"                                        %.m.n.C.( . A z./././.6., M M.m.n.&.                                            ",
"                                        ..m.-.n.Y     # t s 6     Y n.-.n.X.                                            ",
"                                        m V.-.-.z                 i =.-.C.G                                             ",
"                                        . #.=.T 0                 & Y $.*.$                                             ",
"                                        0 j j j 8                   g j j 9                                             ",
"                                        8 c j g                     h j x 9                                             ",
"                                        u U x v                     k x U s                                             ",
"                                        A 5.| F                     G | @.F                                             ",
"                                      3 G ` | k                     r | ' E p                                           ",
"                                    p.OXi.-X7.W.                    W.6.-Xl..Xx.                                        ",
"                                    _.OX X5Xb.2XQ.                p.5Xc.3XoX.XoX                                        ",
"                                    OX(.>X3Xk.,X~.                x.3Xk.:X1Xv.:X                                        ",
"                                    i.F `.OX! <Xl.                2.,X[ _.XXA 3.                                        ",
"                                        t u u A                     A s e u                                             ",
"                                                                                                                        ",
"                                                                                                                        "
};
