/* XPM */
static char *bee2eae5a6d64f10a2b02400382b4399rCjAPXC4yCgcmaAA[] = {
/* columns rows colors chars-per-pixel */
"60 60 215 2 ",
"   c None",
".  c black",
"X  c #00080C",
"o  c #1F0000",
"O  c #280003",
"+  c #271A19",
"@  c #3C1E11",
"#  c #3A021D",
"$  c #342319",
"%  c #1B1925",
"&  c #3C1E29",
"*  c #2E2425",
"=  c #372224",
"-  c #2F2E34",
";  c #342133",
":  c #3A3534",
">  c #40231E",
",  c #5A291A",
"<  c #4A2723",
"1  c #482C27",
"2  c #572E27",
"3  c #45332F",
"4  c #56352C",
"5  c #473434",
"6  c #493632",
"7  c #4D3B3C",
"8  c #473738",
"9  c #553931",
"0  c #593C34",
"q  c #593A3A",
"w  c #693626",
"e  c #603D36",
"r  c #633E3A",
"t  c #5A433E",
"y  c #594337",
"u  c #6F402F",
"i  c #7A412D",
"p  c #6A4630",
"a  c #64453D",
"s  c #6B453D",
"d  c #6A493D",
"f  c #794A3A",
"g  c #6E503B",
"h  c #72543C",
"j  c #7A553D",
"k  c #473C43",
"l  c #543E41",
"z  c #544242",
"x  c #5D4543",
"c  c #5E4D46",
"v  c #5C514A",
"b  c #614743",
"n  c #644B44",
"m  c #6B4D44",
"M  c #654C49",
"N  c #6C4B45",
"B  c #734C42",
"V  c #6E5046",
"C  c #6D5048",
"Z  c #685544",
"A  c #735346",
"S  c #7B5244",
"D  c #745549",
"F  c #7B564A",
"G  c #735A4B",
"H  c #7C5B4B",
"J  c #795B45",
"K  c #755B52",
"L  c #7A664E",
"P  c #7E6252",
"I  c #854A32",
"U  c #874D38",
"Y  c #83573C",
"T  c #8A573C",
"R  c #975D3F",
"E  c #8E603E",
"W  c #855443",
"Q  c #845B44",
"!  c #8A5C45",
"~  c #85554D",
"^  c #825C4C",
"/  c #8B5A48",
"(  c #875C50",
")  c #8B5D53",
"_  c #905D54",
"`  c #985C42",
"'  c #8D6043",
"]  c #8C624C",
"[  c #866C4E",
"{  c #946445",
"}  c #9A6443",
"|  c #92644D",
" . c #94694D",
".. c #9C6C4E",
"X. c #9C6948",
"o. c #846453",
"O. c #8C6353",
"+. c #8F6955",
"@. c #8D6C5A",
"#. c #876659",
"$. c #926355",
"%. c #946A52",
"&. c #9A6C52",
"*. c #936558",
"=. c #98675A",
"-. c #946B5B",
";. c #9B6B5D",
":. c #986657",
">. c #8D7356",
",. c #95755C",
"<. c #9D7B5B",
"1. c #947859",
"2. c #A26D49",
"3. c #A96E49",
"4. c #A66B46",
"5. c #A4734C",
"6. c #AC734C",
"7. c #A77B47",
"8. c #B2764D",
"9. c #B9794E",
"0. c #A16F50",
"q. c #A47352",
"w. c #A97654",
"e. c #A47B5D",
"r. c #AA7B5A",
"t. c #A97956",
"y. c #B37C54",
"u. c #BA7D54",
"i. c #B47E5A",
"p. c #B27651",
"a. c #9D6E60",
"s. c #957361",
"d. c #9B7461",
"f. c #9C7964",
"g. c #957C68",
"h. c #8D7C67",
"j. c #A37263",
"k. c #A17B65",
"l. c #AA7D6B",
"z. c #A77D68",
"x. c #A6825E",
"c. c #BD8157",
"v. c #BC8259",
"b. c #A69753",
"n. c #9B836C",
"m. c #96816C",
"M. c #A68363",
"N. c #AD8663",
"B. c #AC8B64",
"V. c #AF846E",
"C. c #AE8E6F",
"Z. c #BC8C65",
"A. c #B68A68",
"S. c #BB916A",
"D. c #B5916D",
"F. c #AC8A73",
"G. c #A28A71",
"H. c #B98C76",
"J. c #B38974",
"K. c #BC9274",
"L. c #B59379",
"P. c #BC947B",
"I. c #B59A7E",
"U. c #BE987E",
"Y. c #AFA766",
"T. c #C28255",
"R. c #C3865A",
"E. c #C6895C",
"W. c #CA8B5E",
"Q. c #C48D63",
"!. c #CB8E61",
"~. c #CC9164",
"^. c #C3926D",
"/. c #CC966D",
"(. c #C5996E",
"). c #CD986C",
"_. c #D39566",
"`. c #D49B6C",
"'. c #D3976B",
"]. c #C3987F",
"[. c #C69877",
"{. c #D49D71",
"}. c #CBA17D",
"|. c #D2A37B",
" X c #DDA97D",
".X c #D8A374",
"XX c #E0A473",
"oX c #E4A876",
"OX c #BA9A80",
"+X c #BBA183",
"@X c #BCA489",
"#X c #C59D82",
"$X c #C4A184",
"%X c #CAA588",
"&X c #CBAB8C",
"*X c #C7A488",
"=X c #D5A984",
"-X c #D3AB8D",
";X c #D8A986",
":X c #D8B18E",
">X c #D5AE90",
",X c #D5B292",
"<X c #DBB392",
"1X c #DEBC9B",
"2X c #D9B996",
"3X c #E2BB99",
"4X c #E6C19D",
"5X c #EAC29B",
"6X c #E4C3A2",
"7X c #EDC9A4",
"8X c #EBC4A0",
"9X c #F1CDA7",
"0X c #F3CFA9",
"qX c #F3D0AA",
"wX c #EEF0A4",
/* pixels */
"                                                                                                                        ",
"                                                                                                                        ",
"                                                                                                                        ",
"                                                                                                                        ",
"                                                                                                                        ",
"                                                                                                                        ",
"                                                                                                                        ",
"                                                                                                                        ",
"                                                                                                                        ",
"                                                                                                                        ",
"                                                                                                                        ",
"                                                                                                                        ",
"                                                                                                                        ",
"                            +                                                                                           ",
"                          m.-Xo                                                                                         ",
"                $         $X3X2                                                                                         ",
"                y 1       2X<Xs X                                                                                       ",
"                d f U , . 7X<Xs = +                                                                                     ",
"                y ! I f 1 +XU.F 5 u                                                                                     ",
"                  j ^ K G L o.D m ` 2                                                                                   ",
"                  G D l x @.@.% ] 6.w                                                                                   ",
"                M.e.OX,XL.#.K l Q u.i                                                                                   ",
"              >.XX_.;X{.'.!.^ k C p.i X                                                                                 ",
"              >..X!.y.B.7.R.W.D k d < * ,.d.@.                                                                          ",
"              <.`.u.Y.wXb.u.~.c.W < = > M #.f.V.M.                                                                  $   ",
"            ,.Z.v.R.y.7.R.!.R.Q.{.S.f w 9 M b A f.K.k.                                                            4 '   ",
"          o.O.] w.v.W.W.W.R.E.3X1X].-., t C C A m H N.A.>.                                                    [ S 2.6.  ",
"        c - 6 D ] w.u.R.T.T.<X7X,X~ ^ @ t M n V F ^ ^ &.^.S.B.1.>.1.M.N.S.(.S.>.        D J   J       h y <.Z.q.T W...  ",
"        + * x n D | q.5.Q.5X0X4XH.B a 8 x n n m D ^ O.&.0.i./.{.{.{.`._.!.W.!.XXe.n -.+.O.+.%.&.r.i.5.Y Z._.} Y T.'.Z   ",
"          z 8 z x t 6 = P *X$XV.) 3 5 x x b m V F ^ | &.w.t.y.v.R.R.R.R.E.E.c.8.~. .a A S S Q | 0.X.{ y.T.} { T.~.k.    ",
"            8 7 : 7 n x 7 # q r 7 l z z x n m A H ]  .0.w.y.v.v.R.R.E.E.E.R.v.6.X.E 9 ^ ] %.&...3.8.9.u.v.6.R./.K.1     ",
"              M x t . o.L.L.%XG.; 7 t b b n V F ^ ] &.q.w.y.u.v.R.R.R.R.R.R.E.W.R.y.g m s.F.U.^.^.^.[.|././.[.H.s       ",
"                      @.-X-X8X4X#.O.F A m m D H ] %.q.w.y.i.v.v.v.T.R.R.E.E.E.R.R.E.~.G r -.l.L.#X%X&X#X].H.V.m         ",
"                    N.%.z.H.,XC.e.^ D A A V D ^ ! { 2.6.8.8.9.u.R.R.R.c.!.!.!.W.E.R.W.}.: e ) ;.;.*.O.d.z.k.Z           ",
"                  L `.! F ) M.r./ ^ F D A D ^ +.z.K.}.=X=X=X|.Q.y.4.R i r.'.!.~.E.E.u. XI.    P ,.d.s.o.Z               ",
"                  x.!.' & H Z... .] ^ ^ g %X4X3X7X9XqX0X7X1X%XV.;.$./ U  . X~.~.!.E.R.W.:X                              ",
"                [ '.R.Q p N.v.q.q.&.%.! f.9X0X9X7X4X-XU.l.=.) *.) #.-.-.) C..X~.~.!.W.T. Xn.    B                       ",
"    +Xh.    m B T Q.E.y.q.Q.u.y.w.q.w.Y f.%X$X].V.d.$._ B 0     <.r.{  ...' (.`.~.~.W.R.W.w., f j.(                     ",
"  %X&X1Xg.S l.j./ U 3.3.r.E.c.c.v.u.{ S ) ~ ( ~ ( $.( 0           |.oX_.W.W.y.|.`.!.!.E.E.3.U U =.;.(                   ",
"  G >X%X&Xs.=.j.j.:.W 2 t.~.R.R.2.p S $.O.O.$.$.( a                 x.Z.`..X).h (.XX!.R.W.y., 1 O.a.$.F                 ",
"    P >X#X;.F A m m D S I } 4.R     1 a B B s 0                                   N.~.~.'. .      ^ s.=.d               ",
"      ^ B O       m ;.j.$.W f ;.G                                                 v +XD.K.e       g.1X].4               ",
"          G.&X@XH =.j.a.j.*.o.n                                                   @X6XOXP       m.6X$XJ.                ",
"          L.&X2XI.@.=.^ 9                                                         I.F.^         *X1XF.                  ",
"          n -XOX3Xk.B                                                                             g.                    ",
"            O #XH.B                                                                                                     ",
"                <                                                                                                       ",
"                                                                                                                        ",
"                                                                                                                        ",
"                                                                                                                        ",
"                                                                                                                        ",
"                                                                                                                        ",
"                                                                                                                        ",
"                                                                                                                        ",
"                                                                                                                        ",
"                                                                                                                        ",
"                                                                                                                        ",
"                                                                                                                        ",
"                                                                                                                        ",
"                                                                                                                        "
};
