/* XPM */
static char *f7f55f0893eb4e9e9ea88a5c7ab48cafpDlrZ6vzp62qmP20[] = {
/* columns rows colors chars-per-pixel */
"60 60 150 2 ",
"   c None",
".  c #A75700",
"X  c #A85500",
"o  c #A75800",
"O  c #AC5A00",
"+  c #AB5D0A",
"@  c #B15F00",
"#  c #A95E1B",
"$  c #B56402",
"%  c #B96700",
"&  c #BC6A04",
"*  c #BE6D0E",
"=  c #B36515",
"-  c #BB6B12",
";  c #BD6D19",
":  c #AA5F20",
">  c #AB6327",
",  c #AC672E",
"<  c #B26925",
"1  c #B66E2E",
"2  c #BF7224",
"3  c #AD6B35",
"4  c #B16C34",
"5  c #B06E3A",
"6  c #B7753B",
"7  c #C26E01",
"8  c #C16F0B",
"9  c #C57300",
"0  c #C77A00",
"q  c #C3720B",
"w  c #C37116",
"e  c #C3731B",
"r  c #C67B1C",
"t  c #C57622",
"y  c #C2762A",
"u  c #C67A2C",
"i  c #C97C2D",
"p  c #C77C31",
"a  c #C97E32",
"s  c #B37644",
"d  c #BB7B45",
"f  c #C17D42",
"g  c #CA8501",
"h  c #CC8B24",
"j  c #C8812E",
"k  c #CC8A2A",
"l  c #CA8235",
"z  c #CC8B33",
"x  c #CA843B",
"c  c #CB8B3D",
"v  c #BB804E",
"b  c #BC8351",
"n  c #BE8859",
"m  c #CC8C43",
"M  c #CE8E49",
"N  c #D08E4E",
"B  c #CE9145",
"V  c #CF934C",
"C  c #D0954F",
"Z  c #C38A56",
"A  c #C38E5C",
"S  c #CF9551",
"D  c #D09652",
"F  c #D29955",
"G  c #D3975B",
"H  c #D49C5C",
"J  c #D5A05F",
"K  c #C59365",
"L  c #C89666",
"P  c #CC9D6E",
"I  c #D09760",
"U  c #D49E62",
"Y  c #D89F64",
"T  c #D6A161",
"R  c #D9A367",
"E  c #DBA56B",
"W  c #DDAA6E",
"Q  c #CFA070",
"!  c #D2A473",
"~  c #DEAB72",
"^  c #D5A979",
"/  c #D9AF7F",
"(  c #E0AD74",
")  c #E2AF78",
"_  c #E4B57C",
"`  c #E9B77C",
"'  c #E7B87E",
"]  c #EEBA7B",
"[  c #F3BF7E",
"{  c #D8AF80",
"}  c #DBB383",
"|  c #DFBB9B",
" . c #E5B680",
".. c #E6BA82",
"X. c #EABB84",
"o. c #E2BC8B",
"O. c #DFBDA0",
"+. c #F1C083",
"@. c #F3C58C",
"#. c #F6C88E",
"$. c #E7C191",
"%. c #EBC694",
"&. c #EDC997",
"*. c #EECA98",
"=. c #F3C791",
"-. c #F4CB94",
";. c #FACF94",
":. c #F3CE9A",
">. c #FCD196",
",. c #F4D19E",
"<. c #FDD49B",
"1. c #FFD99F",
"2. c #F5D4A1",
"3. c #FAD7A2",
"4. c #FBDAA5",
"5. c #FCDDA9",
"6. c #E8CFBC",
"7. c #E9D2BE",
"8. c #FFE1A7",
"9. c #FFE1A9",
"0. c #FFE3A9",
"q. c #FFE1AB",
"w. c #FFE3AB",
"e. c #FFE1AC",
"r. c #FFE3AD",
"t. c #FFE4AC",
"y. c #FFE5AD",
"u. c #FFE5AE",
"i. c #FFE7AF",
"p. c #FFE3AD",
"a. c #FFE8AF",
"s. c #FFE7B0",
"d. c #FFE7B0",
"f. c #FFE8B0",
"g. c #FFE9B1",
"h. c #FFE8B1",
"j. c #FFEAB1",
"k. c #FFE9B2",
"l. c #FFEBB2",
"z. c #FFECB3",
"x. c #FFE9B1",
"c. c #FFF0B6",
"v. c #EEDDD0",
"b. c #EFE0D4",
"n. c #F0E1D6",
"m. c #F2E4D8",
"M. c #F8F1EB",
"N. c #F8F1EC",
"B. c #FBF8F5",
"V. c white",
/* pixels */
"                                                                                                                        ",
"                                                                                                                        ",
"                                                                                                                        ",
"                                                                                                                        ",
"                                                                                                                        ",
"                                                                                                                        ",
"                                                                                                                        ",
"                                                                                                                        ",
"                                                                                                                        ",
"                                                                5.5.3.3.5.5.                                            ",
"                                                            3.k.<.W G G ( 1.s.3.                                        ",
"                                                          3.a.E e q 9 0 9 q ~ k.3.                                      ",
"                                                        3.t.N w z U 7.m.7.H r H k.3.                                    ",
"                                                        k.D w m U M.V.V.V.v.h c R k.3.                                  ",
"                                                      5.X.7 M h b.V.V.V.B.O.z F l _ t.t.w.w.5.3.                        ",
"                                                      t.M p z ^ V.N.6.| H k V V V c G H M M ~ t.3.                      ",
"                                                    5.4.u x g 6.n.z g h B D V V V C B m V m 7 m 5.3.                    ",
"                                                    5.1.t a m | V c G G V V V V V V V V V D V 7 G z.3.                  ",
"                                                    3.5.a u M B V S V V V V V V V V V V V V V l q =.3.                  ",
"                                                      t.G w l V V V V V V V V V V V V V V V V l 7 ~ t.                  ",
"                                                      5.@.q l V V V V V V V V V V V V V V V V a w U k...                ",
"                                                        k.N x D V V V V V V V V V V V V V V m i e I k._                 ",
"                                                      3.4.m V V V V V V V V V V V V V V V V p a 8 ! k.W                 ",
"                                                      k.E l D V V V V V V V V V V V V V V a u l % o.w.D                 ",
"                                                    5.;.l C V V V V V V V V V V V V m c i u l - v 5.#.                  ",
"                                                    k.G m C V V V V V V V V V c p p i u a l - > &.w.H                   ",
"                                                  5.X.j D V V V V V V V V V m u a a i y ; X s &.r.]                     ",
"                                                3.w.m V V V V V V V V V V V a i O o # , b / 3.5.[ l                     ",
"                                                r.( l D V V V V V V V V V c u < P $.*.2.5.w.<.T                         ",
"                                              3.3.l V V V V V V V V V V m a % ^ r.4.1.>.' J c                           ",
"                                              k.Y c D V V V V V V V V V l e d 3.-.m c                                   ",
"                                            5.=.j D V V V V V V V V V m a $ o.5.H                                       ",
"                                          3.t.D m C V V V V V V V V V l * A 5.@.                                        ",
"                                          5. .j D V V V V V V V V V c u < *.5.D                                         ",
"                                        3.5.m V V V V V V V V V V V l % Q r.`                                           ",
"                                        k.W l D V V V V V V V V V c t 6 3.1.m                                           ",
"                                      3.:.l V V V V V V V V V V m a % } w.R                                             ",
"                                    3.k.H c C V V V V V V V V V l w b 5.;.l                                             ",
"                            3.5.5.3.r.) l D V V V V V V V V V m i = $.5.H                                               ",
"                        3.r.5.#.' ~ N u V V V V V V V V V V V l & L r.+.                                                ",
"                      3.5.E i e u l c V V V V V V V V V V V c u 1 ,.4.V                                                 ",
"                    3.;.a q m D D D C V V V V V V V V V V m a % ^ r.(                                                   ",
"                  3.4.u t V C V V V V V V V V V V V V V V x e d 3.<.c                                                   ",
"                  t.Y 7 m V V V V V V V V V V V V V V V m a $ o.w.T                                                     ",
"                3.5.u i m V V V V V V V V V V V V V V V l & A r.#.                                                      ",
"                5.-.q a M V V V V V V V V V V V V V V m u 1 *.4.D                                                       ",
"                5.@.7 a m V V V V V V V V V V V V V V V u d 3.=.                                                        ",
"                5.=.7 p m V V V V V V V V V V V V V V V m % } 5.                                                        ",
"                5.4.2 a p V V V V V V V V V V V V V V V M t f t.,.                                                      ",
"                  t.Z w a l V V V V V V V V V V V V V V m a ; %.2.                                                      ",
"                  5.:.+ t a l x x x m V V V V V V V V V c a * o.5.                                                      ",
"                    s.o., O @ O X - a M V V V V V V V M i a * o.5.                                                      ",
"                    ,.c.2.{ P ! } n ; l M C V V V V m p i i 1 2.;.                                                      ",
"                      X.<.t.t.t.t.5.b - l m V V V c i i l @ P r.~                                                       ",
"                          T E U T 3.,.4 ; l a p i u a l @ b 5.1.m                                                       ",
"                                    r.&.5 $ i a a a 2 X n 3.5.H                                                         ",
"                                      k.2.K : O O . 3 ^ 5.4.H                                                           ",
"                                        3.k.:.} { o.3.w.>.F                                                             ",
"                                          ..<.w.t.8.>.W c                                                               ",
"                                              S                                                                         "
};
