/* XPM */
static char *b4a208cda16a4d94d3489c6ac9cd7b7bzVJQjuKDGjeaggtA[] = {
/* columns rows colors chars-per-pixel */
"60 60 214 2 ",
"   c None",
".  c black",
"X  c #130008",
"o  c #000010",
"O  c #271009",
"+  c #38241E",
"@  c #321F20",
"#  c #2B2125",
"$  c #3A2622",
"%  c #3A2A2B",
"&  c #3A2328",
"*  c #3C2E34",
"=  c #3B3236",
"-  c #373338",
";  c #47261A",
":  c #582D1F",
">  c #4C2521",
",  c #452B29",
"<  c #572F25",
"1  c #522C2B",
"2  c #4D342B",
"3  c #473229",
"4  c #563C2C",
"5  c #5C3C2D",
"6  c #563426",
"7  c #423335",
"8  c #4C3D3D",
"9  c #463537",
"0  c #553B33",
"q  c #5C3C34",
"w  c #523D39",
"e  c #533730",
"r  c #643725",
"t  c #743B26",
"y  c #673D38",
"u  c #53403B",
"i  c #5C463F",
"p  c #584838",
"a  c #65443B",
"s  c #69443C",
"d  c #6A493E",
"f  c #654938",
"g  c #784937",
"h  c #7A543C",
"j  c #553F41",
"k  c #453941",
"l  c #554141",
"z  c #5C4543",
"x  c #644A44",
"c  c #6B4D44",
"v  c #634C49",
"b  c #694F4A",
"n  c #604743",
"m  c #714E43",
"M  c #794E45",
"N  c #704642",
"B  c #6E5146",
"V  c #6F524A",
"C  c #725346",
"Z  c #795144",
"A  c #755549",
"S  c #7C5449",
"D  c #745B4D",
"F  c #7D5B4B",
"G  c #6B5650",
"H  c #755B53",
"J  c #7D5B51",
"K  c #79624A",
"L  c #7D6151",
"P  c #786358",
"I  c #834B34",
"U  c #864D39",
"Y  c #83523D",
"T  c #8C543B",
"R  c #8C5B3D",
"E  c #84573C",
"W  c #975B3E",
"Q  c #825742",
"!  c #875A42",
"~  c #825C4C",
"^  c #8A5B4F",
"/  c #895747",
"(  c #845E51",
")  c #8D5D53",
"_  c #945942",
"`  c #84634D",
"'  c #8B624D",
"]  c #876046",
"[  c #926146",
"{  c #9A6342",
"}  c #9D6944",
"|  c #93654D",
" . c #9D6B4B",
".. c #976A4F",
"X. c #846354",
"o. c #8B6354",
"O. c #8D6953",
"+. c #886B59",
"@. c #916356",
"#. c #9A6C51",
"$. c #946759",
"%. c #996759",
"&. c #946A5B",
"*. c #9B6C5D",
"=. c #966953",
"-. c #8E7458",
";. c #957456",
":. c #92725C",
">. c #9C745D",
",. c #9C7A5B",
"<. c #977455",
"1. c #A26E4B",
"2. c #A96F4A",
"3. c #AA734D",
"4. c #B1754E",
"5. c #BA784F",
"6. c #A06F51",
"7. c #A47353",
"8. c #AA7552",
"9. c #AE7954",
"0. c #A67B5B",
"q. c #AD7B5A",
"w. c #A77756",
"e. c #B47C55",
"r. c #BA7C54",
"t. c #B26D46",
"y. c #9C6D61",
"u. c #8A7863",
"i. c #947560",
"p. c #9D7463",
"a. c #9D7966",
"s. c #A27263",
"d. c #A57A65",
"f. c #A47B69",
"g. c #A97E6B",
"h. c #A2804B",
"j. c #B4834F",
"k. c #BD8156",
"l. c #B2815D",
"z. c #BC8259",
"x. c #BB885F",
"c. c #9F856C",
"v. c #94846D",
"b. c #AC8663",
"n. c #A3846D",
"m. c #AC826D",
"M. c #AD8A6A",
"N. c #A98564",
"B. c #B28668",
"V. c #B68B65",
"C. c #BC9169",
"Z. c #AC8C74",
"A. c #A38C73",
"S. c #B58C74",
"D. c #B68A75",
"F. c #AE927A",
"G. c #BB9273",
"H. c #B4937B",
"J. c #BB947B",
"K. c #BB997C",
"L. c #B79B7D",
"P. c #BEB16E",
"I. c #B7A66B",
"U. c #C28356",
"Y. c #C3855A",
"T. c #C6895D",
"R. c #C98B5E",
"E. c #C68D63",
"W. c #CA8E61",
"Q. c #CB9264",
"!. c #C4936A",
"~. c #CE9569",
"^. c #CC986C",
"/. c #D29364",
"(. c #D39B6D",
"). c #C39A7C",
"_. c #C99A78",
"`. c #D49F71",
"'. c #CEA179",
"]. c #D3A073",
"[. c #D9A274",
"{. c #DCA97A",
"}. c #D9A67B",
"|. c #E2A574",
" X c #B39C81",
".X c #BAA082",
"XX c #C59F83",
"oX c #C89F81",
"OX c #C6A486",
"+X c #CDA183",
"@X c #C4A789",
"#X c #CDA68A",
"$X c #CBAB8D",
"%X c #D3A987",
"&X c #D4AC8B",
"*X c #D9AE89",
"=X c #D0A382",
"-X c #CDBF87",
";X c #D4B393",
":X c #DBB593",
">X c #DEBB9A",
",X c #E0B693",
"<X c #E3BD9A",
"1X c #E2BA96",
"2X c #E3B188",
"3X c #D0D189",
"4X c #E9C29F",
"5X c #E7C19B",
"6X c #EBC7A2",
"7X c #EDC9A4",
"8X c #E0C2A0",
"9X c #F1CAA5",
"0X c #F3CFA9",
"qX c #F5D1AA",
/* pixels */
"                                                                                                                        ",
"                                                                                                                        ",
"                                                                                                                        ",
"                                                                                                                        ",
"                                                                                                                        ",
"                                                                                                                        ",
"                                                                                                                        ",
"                                                                                                                        ",
"                                                                                                                        ",
"                                                                                                                        ",
"                                                                                                                        ",
"                                                                                                                        ",
"                                                                                                                        ",
"                                                                                          D                             ",
"                                                                                        X.4X                            ",
"                                                                                      . &.9Xc.      $ 3                 ",
"                                                                                      @ $.9XL.    < a f                 ",
"                                                                                    , % $.7X.X. U U d                   ",
"                                                                                  r g 9 >.Z.u.q h I Q                   ",
"                                                                                  g  .i C L ` x H O.5                   ",
"                                                                                ; U r.0 l p.H P P H L                   ",
"                                                                                ; W e.z v V B.*X6X).E.b.                ",
"                                                                                X T | k x z./.5.r.(./.].                ",
"                                                                        ,.>.f.X.o , 7 z e./.} I.-Xj./.^.                ",
"  6                                                                 N.S.a.J b , < < ! 4.T.W.r.P.3Xh.R.!.,.              ",
"  3.4                                                           :.G.d.C x b n 5 r 0.%X*XE.Y.W.r.t.Y.Y.e.q.:.            ",
"  k. .] ,.    O                             -.              -.b.B.' m A V c v e r p.H.6X1XY.U.T.R.Y.e.#.Z B D           ",
"  w.R.R 1.~.b.h E w.<.O.` ` ` ~ o.`   K C.[.[.`.!.C.b.b.M._.!.w.' ' ~ C c x v 9 2 Z &.<X9X,XT.Y.z.9...A c # - u         ",
"  F (.U.R R W.z.R  .9.7.| o.~ F X.X.F (./.Y.T.R.R.W./.~.E.l.8.7.#.' F C c x n z u 0 ~ J.<X0X1X .E ' F c z l %           ",
"    m.~.U.} 1.k.r.1.7.7.| ! Q Z C q 8.4.1.Y.T.T.T.Y.Y.z.r.e.q.7.#.' ~ A B x n z z 7 w ( *.f.+.7 * = 7 8 = - 8           ",
"    2 G._.R.r.V.z.5.4.2.w.d.>.O.C 4 } 3.k.Y.Y.Y.Y.Y.Y.Y.z.r.e.7.#.| ' F C c x z l j l % B C x D x z z 8 v               ",
"      a D.)._.'.*X%X=X+XoXJ.a.( i w.T.R.T.T.Y.Y.Y.Y.Y.z.k.r.e.9.7.#.' ~ A B x x c c w G :X:X#X+Xd   w z z               ",
"        c m.D.D.D.J.D.m.d.&.M & M.W.Y.Y.T.R.T.R.T.Y.Y.z.z.k.r.e.8.6...' ~ A c B C F =.M.<X1XXXJ.K                       ",
"          i +.a.&.$.s.s.o.m   c.{.r.T.T.W.W.Q.z.4.k.Y.U.k.r.r.e.9.1.[ Q Z s c C C A ~ >.M.XXd.O.0.b.                    ",
"              p X.i.:.        &XW.Y.T.W.Q.W.`.! t U { q._.:X<X5X<X:X%XK.m.n.X.C F ~ ` ' l.,.N c 1.^.                    ",
"                            A.2XU.T.R.Q.Q.(._./ %.%.*.y.f.D.#X>X7X0X0X0X7XqXOXg ' ' | #.7.!.C , 1./.0.                  ",
"                    m ~     G./.Y.T.Q.Q./.'.X.o.X.J S ( S M ~ *.g.).&X<X4X7X<XO.| ..#.7.8.z.l.h 1.R.^.p                 ",
"                  d s.%.I g r.T.T.W.Q./.}.0.3.9.e.z.{.;.      s ) ) ) *.f.m.g.o.! 8.9.9.r.k.x.8.U.Y.3.Y @.(   P  X@Xn.  ",
"                m s.y.@.t U r.T.T.E.Q.{.C.R././.|.].M.          3 Z @.) ) ) ^ ) S [ r.Y.Y.k.Q.#.W T U *.s.s.( @X;X@Xc.  ",
"              a @.~ p.m   : T.R.Y./.}.-.r C.!.V.,.                  e M ) @.@.@.) q ; { U.Y.E.Y q ^ *.&.s.@.Z.;XOXK.    ",
"              Z g.H.>     . <.(.Q.B.                                    $ e a q +     s _ T I Y @.c       y @.).K.      ",
"              s ,X;XF.      A S.L.$X+.                                                L &.) %.*.s.s.~   u.v.  1         ",
"                :.$X8Xv.      d #X7X X                                                    J S $.*.s.S H.>X;XA.          ",
"                  n.:X X        > i.                                                            ~ ^ Z.@X;X$XX.          ",
"                                                                                                  c m.>XL.i.            ",
"                                                                                                    s p.:.              ",
"                                                                                                                        ",
"                                                                                                                        ",
"                                                                                                                        ",
"                                                                                                                        ",
"                                                                                                                        ",
"                                                                                                                        ",
"                                                                                                                        ",
"                                                                                                                        ",
"                                                                                                                        ",
"                                                                                                                        ",
"                                                                                                                        ",
"                                                                                                                        ",
"                                                                                                                        ",
"                                                                                                                        "
};
