/* XPM */
static char *_3ede7f6221b411ab5a0336149727ff0twULXyWUrx4dKuFn[] = {
/* columns rows colors chars-per-pixel */
"60 60 206 2 ",
"   c None",
".  c #000002",
"X  c #170000",
"o  c #0A001A",
"O  c #240006",
"+  c #350000",
"@  c #221108",
"#  c #311907",
"$  c #3C0A10",
"%  c #2A1516",
"&  c #391C12",
"*  c #35191B",
"=  c #281922",
"-  c #3C262F",
";  c #3D2121",
":  c #3D3429",
">  c #3F3039",
",  c #392732",
"<  c #450802",
"1  c #580C00",
"2  c #42191C",
"3  c #4A2518",
"4  c #572A1D",
"5  c #57261B",
"6  c #602F1E",
"7  c #4A2522",
"8  c #462B25",
"9  c #562C21",
"0  c #4C332C",
"q  c #52362F",
"w  c #59382A",
"e  c #462F32",
"r  c #453134",
"t  c #4B3639",
"y  c #4E383A",
"u  c #46343A",
"i  c #5C3D34",
"p  c #533D3D",
"a  c #593F3B",
"s  c #533931",
"d  c #633A2C",
"f  c #6A3627",
"g  c #623B31",
"h  c #564232",
"j  c #5C4636",
"k  c #5C423D",
"l  c #5A493B",
"z  c #74412A",
"x  c #66453C",
"c  c #6C4A3F",
"v  c #664639",
"b  c #7A4632",
"n  c #714D3C",
"m  c #784B36",
"M  c #7A543D",
"N  c #4D3D41",
"B  c #533F41",
"V  c #574141",
"C  c #5C4543",
"Z  c #5F4846",
"A  c #634A45",
"S  c #6A4C43",
"D  c #644C49",
"F  c #654B46",
"G  c #764B42",
"H  c #6E5146",
"J  c #6C524B",
"K  c #62584A",
"L  c #735347",
"P  c #7B5946",
"I  c #72564C",
"U  c #75584D",
"Y  c #7B5A4C",
"T  c #795647",
"R  c #6C5451",
"E  c #7C5D51",
"W  c #775A54",
"Q  c #76634D",
"!  c #7E654F",
"~  c #7D6559",
"^  c #7A7665",
"/  c #844C37",
"(  c #885538",
")  c #915A3F",
"_  c #8A5C41",
"`  c #84544B",
"'  c #835C4D",
"]  c #865946",
"[  c #815F52",
"{  c #8C5D52",
"}  c #8C6243",
"|  c #84624A",
" . c #8D634C",
".. c #8C6B4D",
"X. c #956144",
"o. c #93644A",
"O. c #92684C",
"+. c #9B6B4C",
"@. c #836254",
"#. c #8D6554",
"$. c #836A53",
"%. c #8A6C53",
"&. c #866D5B",
"*. c #8C6C5C",
"=. c #916055",
"-. c #9C6E52",
";. c #936559",
":. c #946C59",
">. c #9B7257",
",. c #92745D",
"<. c #9B7859",
"1. c #A56B4A",
"2. c #AD724E",
"3. c #B1744D",
"4. c #A47453",
"5. c #A57859",
"6. c #B17D59",
"7. c #8E7A64",
"8. c #877563",
"9. c #957361",
"0. c #9A7560",
"q. c #977B65",
"w. c #9B7D69",
"e. c #987B65",
"r. c #A27B63",
"t. c #A57766",
"y. c #AC835E",
"u. c #A4815E",
"i. c #B4825D",
"p. c #BB835B",
"a. c #BF8256",
"s. c #92816B",
"d. c #958975",
"f. c #AC8463",
"g. c #A98668",
"h. c #B28463",
"j. c #B58A63",
"k. c #BE8D64",
"l. c #B88968",
"z. c #BE926D",
"x. c #BB9069",
"c. c #AD8870",
"v. c #B38B73",
"b. c #B28A75",
"n. c #AC937B",
"m. c #BC997C",
"M. c #B69475",
"N. c #C0855C",
"B. c #C58A5E",
"V. c #CB8B5C",
"C. c #C18457",
"Z. c #C68C61",
"A. c #CB8F62",
"S. c #C39166",
"D. c #CD9163",
"F. c #CD9469",
"G. c #CC996E",
"H. c #C7926D",
"J. c #D29464",
"K. c #D39668",
"L. c #D99E6E",
"P. c #D79C6B",
"I. c #C19B76",
"U. c #CC9B73",
"Y. c #C99E7F",
"T. c #C69372",
"R. c #D19D75",
"E. c #DBA16F",
"W. c #D9A478",
"Q. c #E1AE7F",
"!. c #BE9C81",
"~. c #B49980",
"^. c #AFA087",
"/. c #BEA58C",
"(. c #C9A285",
"). c #CAA58A",
"_. c #CCAA8D",
"`. c #C3A689",
"'. c #DDAE85",
"]. c #D4AC8D",
"[. c #D7AA82",
"{. c #DCB48E",
"}. c #C9AE90",
"|. c #D4AD91",
" X c #CFB598",
".X c #D4B193",
"XX c #DBB393",
"oX c #DEB997",
"OX c #D9BD9C",
"+X c #E0B087",
"@X c #E3BC9B",
"#X c #E4BC98",
"$X c #E5C19E",
"%X c #E9C29E",
"&X c #DBC4A5",
"*X c #E4C3A2",
"=X c #EAC5A2",
"-X c #EECAA5",
";X c #EFCDAA",
":X c #E5CAA8",
">X c #F1CBA5",
",X c #F2CEA9",
"<X c #F3D1AC",
"1X c #FAD4AC",
"2X c #FADBB5",
"3X c #FBE1BC",
/* pixels */
"                                                                                                                        ",
"                                                                                                                        ",
"                                                                                                                        ",
"                                                                                                                        ",
"                                                                                                                        ",
"                                                                                                                        ",
"                                                                                                                        ",
"                                                                  $.                                                    ",
"                                              v.$.              &.b.l                                                   ",
"                                            F [ l.            $.g.I I                                                   ",
"                                            H N.E.x.          I.E.i.A                                                   ",
"                                            o.J.A.W.,.&.9.*.q.Q.K.K._                                                   ",
"                                            X.A.Z.L.I.~ *.E m.E.A.A.)                                                   ",
"                                            / B.B.K.f.R ~ R f.K.A.C./                                                   ",
"                                            5 2.D.B.J D J D Y A.V.1.5                                                   ",
"                                            h b 2.| N Z Z Z N -.3.f T                                                   ",
"                                            r.S p N C C B B V B k k h.%.                                                ",
"                                          ..j.L F V > r k C u u Z I 4.5.                                                ",
"                                          +.1. .S k %.r.0.r.r.! a ' _ X.                                                ",
"                                          d b X.P :.&.F y y F ,.0.] b 4 &                                               ",
"                                          % 6 P ! p , t p p t - E 0.w &                                                 ",
"                                            j @.t p C C C C C C r I Y                                                   ",
"                                            L a p C C Z Z Z C C C k S 0                                                 ",
"                                          % 0 J C C Z Z A Z Z C V D H * h                                               ",
"                                        : @ L I p Z Z A A A Z C C p @.q j !                                             ",
"                                        y.n *.C C A A D D D A Z Z p U E } f.                                            ",
"                                        G.Y *.y A A D D J D A Z C C k *.} U.                                            ",
"                                        S.c F k F F D J J J A Z C A a I } x.                                            ",
"                                        S.3 r S F D J J J J D A C Z A = } j.                                            ",
"                                        k.m e L J J J J I J D A A A H o 4.h.                                            ",
"                                        y.j.- P J J J I I J J F F S S s G.|                                             ",
"                                          +.x Y U U U U U I J J S L S n (                                               ",
"                                          < g E ' Y Y E E U I J L P H 9                                                 ",
"                                            w &.%.' [ E @.@.Y P L @.L #                                                 ",
"                                            7.7.4.#.@.#.P S L '  . .K                                                   ",
"                                            l i.V.2.:.P % * % i p.C.O.                                                  ",
"                                            k.V.B.U.>.8 ; v n 7 _ V.V.y.                                                ",
"                                          y.J.A.%X-X<.O n '  .o.7 M.K.J.u.                                              ",
"                                        $.L.F.=X,X>X>.$  .O.-.5.X.&.$XF.E.$.                                            ",
"                                        j.D.@X<X>X@XM d o.4.4.z.h.1 }.%XV.z.                                            ",
"                                      Q L.W.<X-X<X(.4 m h.h.6.i.Y.c Q 1XW.L.$.                                          ",
"                                      <.P.{.<X-X,Xv.z { Y.x.p.p.R.(.* *X@XJ.f.                                          ",
"                                      f.J.#X;X-X=X5.( #.c.U.p.Z.[.%Xe.OX=XD.j.                                          ",
"                                      f.D.@X=X=XoXv   c @.].Z.a.W.2X`.M.,XF.S.                                          ",
"                                      i.Z.oX$X=X!.      2 |.'.G.D.=X*Xw.$XH.F.                                          ",
"                                      i.Z.XX$X@X@.      . b.1X#XV.{./.w.].R.B.                                          ",
"                                      M p.].XXv.2         S ;X3XR.'.&Xx b.T.(                                           ",
"                                      3 / :.;.G             !.&X$X'.2Xd.7 ` f                                           ",
"                                      X G _.@X7.            H 9.OX,X1X Xn.).0                                           ",
"                                        /.=X#X.X              < n.2X,X&Xm.,Xn.                                          ",
"                                        @XXXoX.X                . &X1X:X~.#X.X                                          ",
"                                      8.*XoX#X_.                  ^ 2X<Xn.#X@X                                          ",
"                                      s.=XXX@Xm.                    d.3X}.].=X~                                         ",
"                                      8.$XXX@Xg.                      d.^.(.%X&.                                        ",
"                                      ' |.oXXXI                       + c.].).;.                                        ",
"                                    q { 0.b.t.i                       k t.t.{ =.S                                       ",
"                                    x ;.` ` { L                       x =.` { ;.L                                       ",
"                                    q ' { #.;.x                       0 { ' T x 8                                       ",
"                                        8 q 0                                                                           ",
"                                                                                                                        "
};
