/* XPM */
static char *_0083f7a2c4f484a87d802280344779fzzEZa1UFVTtGAwzi[] = {
/* columns rows colors chars-per-pixel */
"60 60 193 2 ",
"   c None",
".  c #010000",
"X  c #160000",
"o  c #000132",
"O  c #000D33",
"+  c #000A39",
"@  c #1A0031",
"#  c #001333",
"$  c #001B33",
"%  c #001D38",
"&  c #3E002D",
"*  c #220030",
"=  c #2D0830",
"-  c #271432",
";  c #351731",
":  c #002333",
">  c #0C2632",
",  c #04233C",
"<  c #142833",
"1  c #1B2B34",
"2  c #122733",
"3  c #003234",
"4  c #003638",
"5  c #153435",
"6  c #242D33",
"7  c #2A2F33",
"8  c #252B35",
"9  c #2D3134",
"0  c #2C3438",
"q  c #263137",
"w  c #343434",
"e  c #3A3533",
"r  c #3D3935",
"t  c #3A3A3A",
"y  c #362832",
"u  c #4F0000",
"i  c #520000",
"p  c #590000",
"a  c #630000",
"s  c #700000",
"d  c #731A0A",
"f  c #7B2114",
"g  c #40002D",
"h  c #4C3633",
"j  c #443C34",
"k  c #483E33",
"l  c #463333",
"z  c #503732",
"x  c #723934",
"c  c #7B3933",
"v  c #6E302D",
"b  c #4D4236",
"n  c #47413C",
"m  c #524433",
"M  c #5C4A35",
"N  c #584938",
"B  c #5A5134",
"V  c #624E35",
"C  c #614E38",
"Z  c #655135",
"A  c #6D5436",
"S  c #6B5438",
"D  c #715735",
"F  c #755935",
"G  c #7C5E35",
"H  c #7B5E38",
"J  c #735938",
"K  c #7E6035",
"L  c #7E6038",
"P  c #3F3F40",
"I  c #004E51",
"U  c #005457",
"Y  c #00595C",
"T  c #004445",
"R  c #005E61",
"E  c #4B4846",
"W  c #555656",
"Q  c #5A5B5B",
"!  c #5E5A56",
"~  c #56504B",
"^  c #635D58",
"/  c #65615E",
"(  c #636363",
")  c #6B6865",
"_  c #7C7C7C",
"`  c #777674",
"'  c #776F68",
"]  c #871C0A",
"[  c #8D200F",
"{  c #98220C",
"}  c #8A2415",
"|  c #992613",
" . c #A02917",
".. c #9D3E2F",
"X. c #802D24",
"o. c #B33B2E",
"O. c #AE3C30",
"+. c #C43C2A",
"@. c #CC3D2A",
"#. c #D13D29",
"$. c #EC3E23",
"%. c #815C36",
"&. c #B7442E",
"*. c #BA4A3C",
"=. c #BE4031",
"-. c #836235",
";. c #896634",
":. c #8D6A35",
">. c #826238",
",. c #956E35",
"<. c #8F7035",
"1. c #977035",
"2. c #9B7235",
"3. c #9B7936",
"4. c #A57A35",
"5. c #AB7D36",
"6. c #A17635",
"7. c #C4412B",
"8. c #CC4229",
"9. c #D8452C",
"0. c #C44531",
"q. c #C64537",
"w. c #DF4A31",
"e. c #DC533E",
"r. c #EB432C",
"t. c #F64224",
"y. c #FB4223",
"u. c #F3452B",
"i. c #DA5442",
"p. c #AB8237",
"a. c #B48336",
"s. c #B98736",
"d. c #BC8936",
"f. c #C38D37",
"g. c #C79037",
"h. c #CB9437",
"j. c #D09737",
"k. c #D39A37",
"l. c #D59A37",
"z. c #DA9D37",
"x. c #D29938",
"c. c #D69C38",
"v. c #DB9E38",
"b. c #DEA038",
"n. c #E6A638",
"m. c #E4A538",
"M. c #E8A738",
"N. c #E9A938",
"B. c #EEAC39",
"V. c #EDAB38",
"C. c #F1AE39",
"Z. c #F2AE39",
"A. c #F6B139",
"S. c #F5B139",
"D. c #F8B339",
"F. c #FAB439",
"G. c #FDB639",
"H. c #FEB639",
"J. c #FCB539",
"K. c #FCB539",
"L. c #FFB839",
"P. c #FFB93A",
"I. c #FFBA3A",
"U. c #FFBC3A",
"Y. c #FFBA39",
"T. c #81807E",
"R. c #768A8B",
"E. c #8A8685",
"W. c #8C8B8A",
"Q. c #878686",
"!. c #918E8B",
"~. c #93918E",
"^. c #838F90",
"/. c #899192",
"(. c #949494",
"). c #9B9B9B",
"_. c #979897",
"`. c #9E9FA0",
"'. c #ADAEAE",
"]. c #A1A2A2",
"[. c gray71",
"{. c gray",
"}. c #BFC0C0",
"|. c #C2C2C2",
" X c #C8C8C8",
".X c #C7C7C8",
"XX c #CFCFD0",
"oX c gray85",
"OX c #E4E4E4",
"+X c #ECECEC",
"@X c #F4F4F4",
"#X c #FFFFFF",
"$X c #F8F7F6",
/* pixels */
"                                                                                                                        ",
"                                                              6 $ 6                                                     ",
"                                                            $ q Z q $                                                   ",
"                                                        w # m g.A.g.b % e                                               ",
"                                                      : % ;.n.I.I.I.n.;.$ >                                             ",
"                                                    O j s.D.U.B.k.C.U.A.s.r #                                           ",
"                                                7 + G v.I.I.m.-.o ;.n.I.I.c.F o 9                                       ",
"                                              $ 1 5.C.U.D.f.1 O ,.o 7 g.D.U.B.4.: #                                     ",
"                                          k o Z j.G.U.N.2.o M z.G.k.m o 6.V.I.F.h.V o k                                 ",
"                                        1 O 2.N.I.G.h.m o 2.B.G.A.G.V.2.o M k.I.I.n.,.o 1                               ",
"                                    m O j f.A.I.C.4.o 9 h.G.G.A.A.A.G.G.g.6 o 5.A.I.A.f.w O m                           ",
"                                  e o -.m.G.I.b.K o ;.N.G.D.A.A.A.A.A.D.G.n.-.O -.m.I.G.m.G o r                         ",
"                                : : a.A.I.F.d.6 o $ M D M M V M M M V N M D M $ o 9 f.G.I.A.5.% >                       ",
"                            j o V v.G.I.N.:.o M ;.-.G D F F F F F F F F F D G -.;.m o ,.V.I.G.c.M O k                   ",
"                          6 O 2.C.I.G.j.j o 4.C.F.A.D.D.D.D.D.D.D.D.D.D.D.D.D.A.F.C.2.o k k.G.I.B.,.O 7                 ",
"                      r $ j g.G.I.C.4.o r h.I.I.G.G.G.G.G.G.G.G.G.G.G.G.G.G.G.G.G.I.I.g.9 o 5.A.I.G.f.e $ j             ",
"                    6 # -.n.I.G.b.Z o :.N.I.V.k.k.k.x.x.x.k.k.k.k.k.k.k.k.x.x.k.k.k.B.I.N.;.o A b.G.I.n.G # 6           ",
"                  : 9 s.F.I.A.d.2 j g.I.I.I.a.o $ # # # # # # # # # # # # # # O : o s.I.I.I.f.w 9 f.A.I.A.a.6 $         ",
"              1 % A v.I.G.n.;.o : 1.g.d.s.f.K y &.8.0.*.0.7.7.7.7.7.7.7.0.*.0.8.&.8 K f.s.d.g.,.# o :.n.G.I.c.Z # 2     ",
"            w 0 2.C.U.A.g.9 o k e : o o o o : z $.u.| a  .u.y.y.y.y.y.r.{ a | u.$.h : o o o o : r j o j h.F.I.B.2.q w   ",
"          7 0 g.I.I.N.6.o M h.k.k.k.c.k.c.v.:.; w.} U ^.I X.y.t.t.y.u.f Y W.U [ w.- <.v.c.c.c.k.k.k.g.m o 4.V.I.I.f.1 w ",
"          w : d.I.k.A o 2.V.I.I.I.I.I.I.I.U.4.& i.u /.#XE.X 7.@.@.#.q.. ).#X/.p e.* p.U.I.I.I.I.I.I.I.N.,.o F c.I.s.:   ",
"            # j 2.N o G A.G.B.C.C.C.C.B.C.A.3.& i.a R.#X_ . 4 3 3 3 T . (.$XR.s e.* 6.A.C.C.C.C.C.C.B.G.B.F o N 2.q <   ",
"              w + r $ ;.G.G.G.G.G.G.G.G.G.I.4.g i.i /.#XE.X =.+.+.+.*.. ).#X/.p e.* p.I.G.G.G.G.G.G.F.G.D.-.$ w + w     ",
"                    o G N.B.V.V.V.V.V.V.V.Z.3.= w.f Y _.U v y.t.t.y.u.d R _.Y ] w.@ 3.C.V.V.V.V.V.V.N.C.N.H o           ",
"                    w w 9 9 9 9 9 9 9 9 9 e 3 h $.u.[ i | r.y.y.y.y.y.r.{ i [ u.$.l 5 w 9 9 9 9 9 9 9 9 9 w w           ",
"                    1 m ,.2.,.1.1.1.1.,.1.2.Z l &.8.0.*.0.8.7.7.7.7.7.8.0.*.0.8.&.e Z 2.1.1.1.1.1.1.,.2.,.N <           ",
"                    o ;.F.G.F.G.G.G.G.F.G.I.5.o # o o o o o o O # O o o o o o o : o s.I.G.F.G.G.G.G.D.I.D.>.o           ",
"                    o -.A.F.A.D.D.D.D.D.A.F.N.h.h.h.h.h.c.z.k.g.g.g.k.v.c.h.h.h.h.h.V.F.D.D.D.D.D.D.A.G.A.L o           ",
"                    o -.A.D.A.A.A.A.A.A.A.A.D.G.G.I.U.D.k.5.:.G F G :.a.z.F.U.G.G.G.D.A.A.A.A.A.A.A.C.F.C.L o           ",
"                    o ;.G.I.G.G.G.G.G.G.G.G.G.F.G.C.s.m o o $ : : : $ o O M s.C.G.G.G.G.G.G.G.G.G.G.F.I.F.>.o           ",
"                    > M 4.4.4.4.4.4.4.4.4.4.4.5.5.A o 2 n ) ~.).(.E.` / E 1 o F 5.5.4.4.4.4.4.4.4.4.4.5.4.N :           ",
"                    w 9 $ $ $ $ $ $ $ $ # $ < o o > E _ {.OX+X@X+X+XOXOXoX[.) : o o 1 $ $ $ $ $ $ $ $ $ $ 0 w           ",
"                    O G n.N.n.M.M.M.M.n.n.B.d.e j ^ '.OX$X#X#X#X#X#X#X#X#X$X}.) b w f.B.n.M.M.M.M.N.n.V.n.H o           ",
"                    o ;.G.I.G.G.G.G.G.F.I.N.V $ E `.@X#X#X#X#X#X#X#X#X#X#X#X$XXX` : V C.I.G.G.G.G.G.F.I.D.>.o           ",
"                    o K C.C.C.C.C.C.B.C.A.,.o k ` XX#X#X#X#X#X#X#X#X#X#X#X#X#X$X.X' o ,.D.C.C.C.C.C.B.A.V.H o           ",
"                    o ;.G.I.G.I.I.I.G.U.z.> w n ].$X#X#X#X#X#X#X#X#X#X#X#X#X#X#X$X'.~ $ b.U.G.I.I.I.G.U.G.>.o           ",
"                    # F b.m.b.b.b.b.b.b.,.O k (  X#X#X#X#X#X#X#X#X#X#X#X#X#X#X#X#X+X_., ,.m.b.b.b.b.v.m.v.J O           ",
"                    w 0 O O # O O O O : w w w Q.OX#X#X#X#X#X#X#X#X#X#X#X#X#X#X#X#X#X X( 9 : O # O O # O # 9 e           ",
"                    : V a.s.a.a.a.a.s.2.< e w ).$X#X#X#X#X#X#X#X#X#X#X#X#X#X#X#X#X#XOXT.1 2.s.a.a.a.a.s.a.C :           ",
"                    o ;.G.I.G.G.G.G.U.h.O j E '.#X#X#X#X#X#X#X#X#X#X#X#X#X#X#X#X#X#XOXE.# k.U.G.G.G.G.I.F.>.o           ",
"                    o -.A.D.A.A.A.A.G.s.o k E [.#X#X#X#X#X#X#X#X#X#X#X#X#X#X#X#X#X#X+X!.o d.I.A.A.A.A.G.Z.L o           ",
"                    o -.A.A.A.A.A.A.F.s.o k W {.#X#X#X#X#X#X#X#X#X#X#X#X#X#X#X#X#X#X+X!.o s.G.C.A.A.C.F.C.L o           ",
"                    o ;.F.G.F.G.F.G.I.d.o k W {.#X#X#X#X#X#X#X#X#X#X#X#X#X#X#X#X#X#X+X!.o f.U.F.G.G.D.I.D.>.o           ",
"                    6 b -.-.K -.K -.-.V 6 e Q |.#X#X#X#X#X#X#X#X#X#X#X#X#X#X#X#X#X#X+XW.6 V -.G -.-.G -.G b 6           ",
"                    w r m m m m m m m j 9 w Q |.#X#X#X#X#X#X#X#X#X#X#X#X#X#X#X#X#X#X+XW.w k m m m m m m m r 9           ",
"                    o -.A.A.A.A.A.A.F.s.o k Q |.#X#X#X#X#X#X#X#X#X#X#X#X#X#X#X#X#X#XOXW.O s.G.C.A.A.C.F.C.L o           ",
"                    o -.A.F.A.D.A.D.G.s.o k (  X#X#X#X#X#X#X#X#X#X#X#X#X#X#X#X#X#X#XOXW.o d.I.A.D.D.A.G.A.L o           ",
"                    o -.A.A.A.A.A.A.F.s.o k W {.#X#X#X#X#X#X#X#X#X#X#X#X#X#X#X#X#X#X+XW.o s.G.S.A.A.C.F.C.L o           ",
"                    o ;.G.I.G.I.G.I.U.d.o k (  X#X#X#X#X#X#X#X#X#X#X#X#X#X#X#X#X#X#X+X~.o f.U.G.I.I.G.I.G.>.o           ",
"                    $ A h.h.h.h.h.h.j.2.# j (  X#X#X#X#X#X#X#X#X#X#X#X#X#X#X#X#X#X#X@X(.$ 2.k.g.h.h.g.j.g.S #           ",
"                    e 1 o o o o o o o $ e w Q |.#X#X#X#X#X#X#X#X#X#X#X#X#X#X#X#X#X#X$X_.e $ o o o o o o o 0 e           ",
"                    # J j.g.g.g.g.g.h.,.$ j Q |.#X#X#X#X#X#X#X#X#X#X#X#X#X#X#X#X#X#X$X_.: 2.j.g.g.g.g.h.g.S $           ",
"                    - %.C.I.I.I.I.I.U.d.o k Q |.#X#X#X#X#X#X#X#X#X#X#X#X#X#X#X#X#X#X+X!.o f.U.G.I.I.G.U.G.>.o           ",
"  e 3 3 3 3 3 3 3 3 3 3 m m.A.C.C.C.D.s.o k Q |.#X#X#X#X#X#X#X#X#X#X#X#X#X#X#X#X#X$X[.! O s.F.C.C.C.C.D.B.H o           ",
"  5 c o.O.O.O.O.O.O.o...o a.I.D.D.F.G.s.o k P ( _ _ _ _ _ _ _ _ _ _ _ _ _ _ _ _ _ ) E j o d.I.A.F.F.A.G.A.>.o           ",
"  5 #.y.t.t.t.t.t.t.t.t.v B C.A.A.A.F.s.o k w t t t t t t t t t t t t t t t t t t w w r o s.G.C.A.A.C.F.C.G o           ",
"w t x x x x x x x x x x h q Z J A D J N 9 e w w w w w w w w w w w w w w w w w w w w w e 9 N J A D D A J Z n 7           ",
"w w 3 3 3 3 3 3 3 3 3 3 9 w $ $ $ $ $ 1 w w w w w w w w w w w w w w w w w w w w w w w w w < $ $ $ $ $ $ $ 9             ",
"                                                                                                                        "
};
