/* XPM */
static char *_e51e3e0ae354bd8bd535a4fabd16af2NHx5z6VqAa8iN31t[] = {
/* columns rows colors chars-per-pixel */
"60 60 179 2 ",
"   c None",
".  c #010000",
"X  c #160000",
"o  c #000132",
"O  c #000D33",
"+  c #000A39",
"@  c #1A0031",
"#  c #001333",
"$  c #001B33",
"%  c #001D38",
"&  c #3E002D",
"*  c #220030",
"=  c #2D0830",
"-  c #271432",
";  c #351731",
":  c #002333",
">  c #0C2632",
",  c #122733",
"<  c #152833",
"1  c #1B2A33",
"2  c #003234",
"3  c #003638",
"4  c #133435",
"5  c #183435",
"6  c #242D33",
"7  c #2A2F33",
"8  c #252B35",
"9  c #362832",
"0  c #273236",
"q  c #2D3134",
"w  c #2C3438",
"e  c #243038",
"r  c #333333",
"t  c #3A3633",
"y  c #3D3834",
"u  c #3A3838",
"i  c #4F0000",
"p  c #520000",
"a  c #590000",
"s  c #630000",
"d  c #700000",
"f  c #731A0A",
"g  c #7B2114",
"h  c #40002D",
"j  c #463333",
"k  c #4C3633",
"l  c #443B33",
"z  c #493E33",
"x  c #503732",
"c  c #772A22",
"v  c #672E31",
"b  c #6D3834",
"n  c #723934",
"m  c #7B3933",
"M  c #4E4236",
"N  c #49423B",
"B  c #524433",
"V  c #5C4A35",
"C  c #584938",
"Z  c #5A5134",
"A  c #624E35",
"S  c #614E38",
"D  c #655135",
"F  c #6D5436",
"G  c #6B5438",
"H  c #715735",
"J  c #755935",
"K  c #7C5E35",
"L  c #7B5E38",
"P  c #735938",
"I  c #7E6035",
"U  c #7E6038",
"Y  c #004445",
"T  c #004E51",
"R  c #005457",
"E  c #00595C",
"W  c #005E61",
"Q  c #7B7D7D",
"!  c #871C0A",
"~  c #8D200F",
"^  c #98220C",
"/  c #8F2312",
"(  c #81261A",
")  c #9B2612",
"_  c #942616",
"`  c #A02917",
"'  c #802D24",
"]  c #9D3E2F",
"[  c #B33B2E",
"{  c #AE3C30",
"}  c #C43C2A",
"|  c #CC3D2A",
" . c #D13D29",
".. c #EC3E23",
"X. c #815C36",
"o. c #B5442E",
"O. c #BA442D",
"+. c #BA4A3C",
"@. c #BE4031",
"#. c #836235",
"$. c #896634",
"%. c #8D6A35",
"&. c #826238",
"*. c #956E35",
"=. c #8F7035",
"-. c #977035",
";. c #9B7235",
":. c #9B7936",
">. c #A17635",
",. c #A57A35",
"<. c #AB7D36",
"1. c #C4412B",
"2. c #CC4229",
"3. c #D24228",
"4. c #DF482F",
"5. c #C44531",
"6. c #C64537",
"7. c #DF4A31",
"8. c #DC533E",
"9. c #EB432C",
"0. c #F64224",
"q. c #FB4223",
"w. c #F3452B",
"e. c #DA5442",
"r. c #AB8237",
"t. c #B48336",
"y. c #B98736",
"u. c #BC8936",
"i. c #C38D37",
"p. c #C79037",
"a. c #CB9437",
"s. c #D09737",
"d. c #D39937",
"f. c #D39A37",
"g. c #D59A37",
"h. c #DA9D37",
"j. c #D29938",
"k. c #D69C38",
"l. c #D99D38",
"z. c #DC9F38",
"x. c #DDA038",
"c. c #DEA038",
"v. c #E6A638",
"b. c #E4A538",
"n. c #E8A738",
"m. c #E9A938",
"M. c #EDAB38",
"N. c #EEAC39",
"B. c #EDAB38",
"V. c #F1AE39",
"C. c #F2AE39",
"Z. c #F7B239",
"A. c #F5B139",
"S. c #F5B139",
"D. c #F8B339",
"F. c #F9B339",
"G. c #FAB439",
"H. c #FDB639",
"J. c #FEB639",
"K. c #FEB739",
"L. c #FCB539",
"P. c #FCB539",
"I. c #FFB839",
"U. c #FFB93A",
"Y. c #FFB83A",
"T. c #FFBA3A",
"R. c #FFBC3A",
"E. c #FFBA39",
"W. c #768A8B",
"Q. c #8B8686",
"!. c #888C8D",
"~. c #838F90",
"^. c #869191",
"/. c #8C9292",
"(. c #949595",
"). c #9A9999",
"_. c #919A9A",
"`. c #FFFDFD",
"'. c #F8F7F6",
/* pixels */
"                                                                                                                        ",
"                                                              6 $ 6                                                     ",
"                                                            $ 0 D e $                                                   ",
"                                                        r # B p.S.p.M % t                                               ",
"                                                      : % $.v.T.T.T.v.$.$ >                                             ",
"                                                    O l y.D.R.N.d.V.R.S.y.y #                                           ",
"                                                7 + K z.T.T.b.#.o $.v.T.T.k.J o q                                       ",
"                                              $ 1 <.V.R.D.i.1 O *.o 7 p.D.R.N.,.: #                                     ",
"                                          z o D s.H.R.m.;.o V h.H.d.B o >.M.T.G.a.A o z                                 ",
"                                        1 O ;.m.T.H.a.B o ;.N.H.S.H.M.;.o V d.T.T.v.*.o 1                               ",
"                                    B O l i.S.T.V.,.o q a.H.H.S.S.S.H.H.p.6 o <.S.T.S.i.u O B                           ",
"                                  t o #.b.H.T.x.I o $.m.H.D.S.S.S.S.S.D.H.v.#.O #.b.T.H.b.K o y                         ",
"                                : : t.S.T.G.u.6 o $ V H V V A V V V A C V H V $ o q i.H.T.S.<.% >                       ",
"                            l o A z.H.T.m.%.o V $.#.K H J J J J J J J J J H K #.$.B o *.M.T.H.k.V O z                   ",
"                          6 O ;.V.T.H.s.l o ,.V.G.S.D.D.D.D.D.D.D.D.D.D.D.D.D.S.G.V.;.o z d.H.T.N.*.O 7                 ",
"                      y $ l p.H.T.V.,.o y a.T.T.H.H.H.H.H.H.H.H.H.H.H.H.H.H.H.H.H.T.T.p.q o <.S.T.H.i.u $ l             ",
"                    6 # #.v.T.H.x.D o %.m.T.M.d.d.d.j.j.j.d.d.d.d.d.d.d.d.j.j.d.d.d.N.T.m.$.o F x.H.T.v.K # 6           ",
"                  : q y.G.T.S.u., l p.T.T.T.t.o $ # # # # # # # # # # # # # # O : o y.T.T.T.i.t q i.S.T.S.t.6 $         ",
"              1 % F z.T.H.v.$.o : -.p.u.y.i.I 9 o.2.5.+.5.1.1.1.1.1.1.1.5.+.5.2.o.8 I i.y.u.p.*.# o %.v.H.T.k.D # ,     ",
"            r w ;.V.R.S.p.q o z t : o o o o : x ..w.) s ` w.q.q.q.q.q.9.^ s ) w...k : o o o o : y l o l a.G.T.N.;.e r   ",
"          7 w p.T.T.m.>.o V a.d.d.d.k.d.k.z.%.; 4.( R ~.T ' q.0.0.q.w.g E !.R / 4.- =.z.k.k.k.d.d.d.p.B o ,.M.T.T.i.1 r ",
"          t : u.T.d.F o ;.M.T.T.T.T.T.T.T.R.,.& e.i /.`.Q.X 1.| |  .6.. ).`.^.a 8.* r.R.T.T.T.T.T.T.T.m.*.o J k.T.y.:   ",
"            # l ;.C o K S.H.N.V.V.V.V.N.V.S.:.& e.s W.`.Q . 3 2 2 2 Y . (.'.W.d 8.* >.S.V.V.V.V.V.V.N.H.N.J o C ;.0 <   ",
"              r + y $ $.H.H.H.H.H.H.H.H.H.T.,.h e.p /.`.Q.X @.} } } +.. ).`.^.a 8.* r.T.H.H.H.H.H.H.G.H.D.#.$ u + r     ",
"                    o K m.N.M.M.M.M.M.M.M.C.:.= 7.g E _.R c q.0.0.q.w.f W (.E ! 7.@ :.V.M.M.M.M.M.M.m.V.m.L o           ",
"                    t u q q q q q q q q q t 2 k ..w.~ p _ 9.q.q.q.q.q.9.^ p / w...j 4 r q q q q q q q q q u u           ",
"                    1 B *.;.*.-.-.-.-.*.-.;.D j O.3.5.+.5.2.1.1.1.1.1.2.5.+.5.3.O.t D ;.-.-.-.-.-.-.*.;.*.C <           ",
"                    o $.G.H.G.H.H.H.H.G.H.T.<.o # o o o o o o O # O o o o o o o : o y.T.H.G.H.H.H.H.D.T.D.&.o           ",
"                    o #.S.G.S.D.D.D.D.D.S.G.M.a.a.a.a.a.k.k.d.p.p.p.d.k.k.a.a.a.a.a.M.G.D.D.D.D.D.D.S.H.S.U o           ",
"                    o #.S.D.S.S.S.S.S.S.S.S.D.H.H.T.R.D.d.<.%.K J K %.t.h.G.R.H.H.H.D.S.S.S.S.S.S.S.V.G.V.U o           ",
"                    o $.H.T.H.H.H.H.H.H.H.H.H.G.H.V.y.B o o $ : : : $ o O V y.V.H.H.H.H.H.H.H.H.H.H.G.T.G.&.o           ",
"                    > V ,.,.,.,.,.,.,.,.,.,.,.<.<.F o , y y t t t t t t y 1 o J <.<.,.,.,.,.,.,.,.,.,.<.,.C :           ",
"                    t q $ $ $ $ $ $ $ $ # $ < o o > l t r r r r r r r r r t l : o o 1 $ $ $ $ $ $ $ $ $ $ w t           ",
"                    O K v.m.v.n.n.n.n.v.v.N.u.t l l r r r r r r r r r r r r r y z r i.N.v.n.n.n.n.m.v.M.v.L o           ",
"                    o $.H.T.H.H.H.H.H.G.T.m.A $ y r r r r r r r r r r r r r r q t : A V.T.H.H.H.H.H.G.T.D.&.o           ",
"                    o I V.V.V.V.V.V.N.V.S.*.o z r r r r r r r r r r r r r r r r q z o *.D.V.V.V.V.V.N.S.M.L o           ",
"                    o $.H.T.H.T.T.T.H.R.h.> t t r r r r r r r r r r r r r r r r r r l $ x.R.H.T.T.T.H.R.H.&.o           ",
"                    # J x.b.x.x.x.x.x.x.*.O z r r r r r r r r r r r r r r r r r r r y $ *.b.x.x.x.x.z.b.z.P O           ",
"                    t w O O # O O O O : r t r r r r r r r r r r r r r r r r r r r r r t q : O # O O # O # q t           ",
"                    : A t.y.t.t.t.t.y.;.< t r r r r r r r r r r r r r r r r r r r r r t 1 ;.y.t.t.t.t.y.t.S :           ",
"                    o $.H.T.H.H.H.H.R.a.O l t r r r r r r r r r r r r r r r r r r r r t # d.R.H.H.H.H.T.G.&.o           ",
"                    o #.S.D.S.S.S.S.H.y.o z r r r r r r r r r r r r r r r r r r r r r y o u.T.S.S.S.S.H.C.U o           ",
"                    o #.S.S.S.S.S.S.G.y.o z r r r r r r r r r r r r r r r r r r r r r y o y.H.V.S.S.V.G.V.U o           ",
"                    o $.G.H.G.H.G.H.T.u.o z r r r r r r r r r r r r r r r r r r r r r y o i.R.G.H.H.D.T.D.&.o           ",
"                    6 M #.#.I #.I #.#.A 6 t r r r r r r r r r r r r r r r r r r r r r t 6 A #.K #.#.K #.K M 6           ",
"                    r y B B B B B B B l q t r r r r r r r r r r r r r r r r r r r r r r r z B B B B B B B y q           ",
"                    o #.S.S.S.S.S.S.G.y.o z r r r r r r r r r r r r r r r r r r r r r y O y.H.V.S.S.V.G.V.U o           ",
"                    o #.S.G.S.D.S.D.H.y.o z r r r r r r r r r r r r r r r r r r r r r y o u.T.S.D.D.S.H.S.U o           ",
"                    o #.S.S.S.S.S.S.G.y.o z r r r r r r r r r r r r r r r r r r r r r y o y.H.V.S.S.V.G.V.U o           ",
"                    o $.H.T.H.T.H.T.R.u.o z r r r r r r r r r r r r r r r r r r r r r y o i.R.H.T.T.H.T.H.&.o           ",
"                    $ F a.a.a.a.a.a.s.;.# l r r r r r r r r r r r r r r r r r r r r r t $ ;.d.p.a.a.p.s.p.G #           ",
"                    t 1 o o o o o o o $ t r r r r r r r r r r r r r r r r r r r r r r r t $ o o o o o o o w t           ",
"                    # P s.p.p.p.p.p.a.*.$ l r r r r r r r r r r r r r r r r r r r r r t : ;.s.p.p.p.p.a.p.G $           ",
"                    - X.V.T.T.T.T.T.R.u.o z r r r r r r r r r r r r r r r r r r r r r y o i.R.H.T.T.H.R.H.&.o           ",
"  t 2 2 2 2 2 2 2 2 2 2 B b.S.V.V.V.S.y.o z r r r r r r r r r r r r r r r r r r r r r y O y.G.V.V.V.V.D.N.L o           ",
"  5 m [ { { { { { { [ ] o t.T.D.D.G.H.y.o z r r r r r r r r r r r r r r r r r r r r r y o u.T.S.G.G.S.H.S.&.o           ",
"  4  .q.0.0.0.0.0.0.0.0.v Z V.S.S.S.G.y.o z r r r r r r r r r r r r r r r r r r r r r y o y.H.V.S.S.V.G.V.K o           ",
"r u b n n n n n n n n n k 0 D P F H P C q u u u u u u u u u u u u u u u u u u u u u u u q C P F H H F P D N 7           ",
"r r 2 2 2 2 2 2 2 2 2 2 q t $ $ $ $ $ 1 t r r r r r r r r r r r r r r r r r r r r r r r t < $ $ $ $ $ $ $ q             ",
"                                                                                                                        "
};
