/* XPM */
static char *_e56a77e76724cccaeff6fc57e5c0a0aqSX9Y1KBMgrkgiM8[] = {
/* columns rows colors chars-per-pixel */
"60 60 212 2 ",
"   c None",
".  c #2D3351",
"X  c #2F3A54",
"o  c #323652",
"O  c #363A54",
"+  c #3B3C54",
"@  c #3B3E5A",
"#  c #473F4E",
"$  c #413E53",
"%  c #7F3F6E",
"&  c #2D4057",
"*  c #2C455C",
"=  c #2D485B",
"-  c #334057",
";  c #3B4157",
":  c #33445A",
">  c #3B4359",
",  c #34495C",
"<  c #394A5C",
"1  c #4E454E",
"2  c #50474E",
"3  c #554D4F",
"4  c #584F4F",
"5  c #565048",
"6  c #5B514E",
"7  c #444255",
"8  c #4B4651",
"9  c #4E4953",
"0  c #434459",
"q  c #494758",
"w  c #434C5C",
"e  c #4D4A5A",
"r  c #544C51",
"t  c #5A4F51",
"y  c #534D5B",
"u  c #5A4C5A",
"i  c #46515C",
"p  c #4C525C",
"a  c #5C5352",
"s  c #5D5853",
"d  c #55525C",
"f  c #5B545E",
"g  c #55595C",
"h  c #5B5B5C",
"j  c #565156",
"k  c #61554E",
"l  c #65594E",
"z  c #6B5D4D",
"x  c #664C5B",
"c  c #694D5A",
"v  c #6D455F",
"b  c #615653",
"n  c #655B51",
"m  c #6A5D52",
"M  c #61565F",
"N  c #625B5B",
"B  c #6C575A",
"V  c #7E545D",
"C  c #7A5D5B",
"Z  c #6F604D",
"A  c #776847",
"S  c #796847",
"D  c #74644C",
"F  c #79674A",
"G  c #76684D",
"H  c #7D6B4B",
"J  c #746147",
"K  c #7F714E",
"L  c #6C6352",
"P  c #6F6855",
"I  c #65625C",
"U  c #6B645B",
"Y  c #736552",
"T  c #7C6554",
"R  c #746B52",
"E  c #7B6B53",
"W  c #736B5C",
"Q  c #79625A",
"!  c #7C7353",
"~  c #7F7855",
"^  c #777054",
"/  c #524C63",
"(  c #56436A",
")  c #4A5060",
"_  c #5E5663",
"`  c #5E5963",
"'  c #5A4D76",
"]  c #674862",
"[  c #61496F",
"{  c #6D4C6D",
"}  c #6F4764",
"|  c #784960",
" . c #78496E",
".. c #7A456B",
"X. c #635561",
"o. c #655A62",
"O. c #6A5D63",
"+. c #69546B",
"@. c #67586C",
"#. c #68596E",
"$. c #775869",
"%. c #6A4770",
"&. c #794370",
"*. c #6D6165",
"=. c #6F646D",
"-. c #736366",
";. c #766568",
":. c #796668",
">. c #756C6B",
",. c #7B6A6A",
"<. c #786565",
"1. c #7C7A65",
"2. c #7D7B68",
"3. c #7E7368",
"4. c #82595E",
"5. c #98555B",
"6. c #BC5E4C",
"7. c #A44E5C",
"8. c #AB5057",
"9. c #A5535D",
"0. c #A95956",
"q. c #B25A54",
"w. c #B85F56",
"e. c #806E4B",
"r. c #83734D",
"t. c #88754C",
"y. c #86794E",
"u. c #897B4F",
"i. c #827147",
"p. c #80615F",
"a. c #816C5A",
"s. c #837552",
"d. c #867A52",
"f. c #897D52",
"g. c #88775F",
"h. c #847B5B",
"j. c #8A7D5C",
"k. c #877657",
"l. c #AB634C",
"z. c #BD624C",
"x. c #BF6245",
"c. c #BC6354",
"v. c #B96559",
"b. c #8D4665",
"n. c #864D64",
"m. c #8C4B64",
"M. c #854B6A",
"N. c #8A4C68",
"B. c #924663",
"V. c #934C63",
"C. c #9C4D61",
"Z. c #855465",
"A. c #8B5463",
"S. c #845B63",
"D. c #8F5368",
"F. c #885D66",
"G. c #935363",
"H. c #975965",
"J. c #9D5862",
"K. c #A45660",
"L. c #846A62",
"P. c #836B67",
"I. c #83736F",
"U. c #847862",
"Y. c #847671",
"T. c #8B7C74",
"R. c #877B74",
"E. c #C36445",
"W. c #C96B45",
"Q. c #C96E4A",
"!. c #CC714C",
"~. c #C06B58",
"^. c #CE7650",
"/. c #8E814E",
"(. c #91834E",
"). c #878156",
"_. c #8E8556",
"`. c #8F8656",
"'. c #8D8455",
"]. c #8D8354",
"[. c #8F8957",
"{. c #8B845B",
"}. c #8E895A",
"|. c #87805C",
" X c #918657",
".X c #918654",
"XX c #908857",
"oX c #928B56",
"OX c #928C57",
"+X c #928A57",
"@X c #918A58",
"#X c #918B58",
"$X c #928B59",
"%X c #918958",
"&X c #928C59",
"*X c #938D59",
"=X c #938C5B",
"-X c #958E59",
";X c #928B59",
":X c #948658",
">X c #969057",
",X c #97905B",
"<X c #9B915D",
"1X c #9B935E",
"2X c #828264",
"3X c #978F63",
"4X c #8F8076",
"5X c #938479",
"6X c #96897C",
"7X c #998C7E",
"8X c #A29760",
"9X c #A39B63",
/* pixels */
"                                                                                                                        ",
"                                      +Xd.$X1X].].j.m r r k r.F a a                                                     ",
"                                       X<X].$X].&X].S m m j.<X X*X3X3                                                   ",
"                              $X  e. X].$X$X$X`.d.f.].].y.d.$X&X*X].Z   d.r.  e.                                        ",
"                            f.9X].r.`.].r.r.r.f.`.$X&X&X$X`.f.$X&X`.E H *X~ `.9Xr.                                      ",
"                        d.<X$X+X`.r.d.$X].r.r.`.`.$X$X&X].f.r.r.d.H D  X&X$X,X~           6                             ",
"                        S e.y.d.].].+X$X&X`.y.r.f.`.d.+X$Xe.H H i.y.i.r.d.`.&Xs.L   F   e.Y                             ",
"                        :X].`.$Xr.d.d.].$X$X$X$X`.r.S e.f.r.e.H p.L.V s.i.d.$X&Xd.b H H e.H F                           ",
"                      D f.`.+X$X`.d.].`.+X$X].+X&X].r.r.H S e.| K.9.7.F.s.H r.G k 4 H i.e.i.s.F                         ",
"                  ,Xf.H e.r.+X$X`.r.].d.].u.r.$X$X&X$X$X`.y.r.A.Q.Q.E.G.f.H S D l r D e.F e.m                           ",
"                  j.1X`.r.].`.$X$X`.r.f.y.C Z.S.Z.j.+Xf.r.d.+X;.B.q.C.$.[.f.z 6 6 3 3 D 6 z R r.y.                      ",
"            D F s s.+X&Xf.H f.$X].&Xd.y.s.m.v.q.8.S.OX$X].r.OX{.>.>.>.{.y.e.S r.].G 4 3 D `.$X*X*Xs.                    ",
"        l e.H r.E H ].$X`.r.`.d.r.f.`.f.E V.Q.W.6.F.[.f.+Xr.].].oXOX/.OX].S ].$X&X`.R 3 r.*X$X$X+X].P                   ",
"          z r.e.r.d.f.&X`.r.f.+X].d.f.d.d.=.M.J...-.*X`.H H r.e.r.`.S e.r.r.&X$X$X].6 4 H +X[.`.$X].d.a 4               ",
"          D H y.].&X*XU.4.u.*X&X+X].].$X*X[.1.W W r.r.f.e.e.r.].`.d.r.r.S `.$X+Xf.+X~ 3 l K f.i.].K k r 6               ",
"        6 s.r.D d.&Xk.B.v.T u.].r.f.+X$X$X+XoXoX].].].e.H d.$X$X&X$X$Xf.S f.f.s.].H R 3 3 k H T c x c l r N 4           ",
"          Y z ^ $X+Xh.5.!.0.V E y.r.+X+X$X$X[.&X`.r.d.e.y.+X$X&X&X$X$X`.r.e.D 6 r.l 2 4 k e.E b.9.9.V.B 3               ",
"      e.e.F H ].s.`.}.{ V.K.&.1.u.d.`.d.$X$X*X].{.`.D e.H H &Xf.].f.y.d.d.l 3 3 3 3 3 3 l H E 5.l.0.b.v a t             ",
"      D s.e.H k n &XK R 2.1.U.+X$Xf.H r.&X].].].D Y Z t.k n s.z S S l / n 6 l F F F F l k 6 F l s } &.X.4               ",
"    l Y H d.`.f.z l 4 y./.y.>Xd.f.].S d.+Xz l f.S l Z Z k H F 6 6 j ] ' r 6 H r.r.H i.H l 3 G ! `.3.( r 4 4 4           ",
"      # n ].$X&X].l 6 F 4 R f.F H r.e.H z D H H e.i.H r Z r.e._ ( &.% [ a 6 S z H H l 3 D F r.$X&X`.d.Z a b 6           ",
"      ^ L ! +X+Xj.a.c t 3 z D k H r.H 3 D i.H e.e.e.H F Z H e.E #.+.@.B S G ! L z D 6 P `.+Xd.r.f.&X`.E 4 r 3 3         ",
"  f.9X].].$XOXg.b.C.C...t 3 3 k z l 6 3 l z H e.H i.z k k l e.F G i.H H r.+X$XoXs.R h.*X$X$X&X`.f.`.f.D D D E z         ",
"    f.f.d.s.u.L.c.!.x.9.u 6 6 2 4 Y s.H 4 l H e.z k l 9 r 8 D l l H k ! $X$XOXj.Z.A.D.L.+X$X$X+X`.r.].u.e.i.i.r.D       ",
"  f.*X$X&X$Xy.<.C.z.w.M.y 6 6 R ].*X$Xf.].! 6 F 6 6 D D D G D 6 3 k z .X].*X).| v.v.q.V.{.].`.d.S e.F D i.e.H r.F       ",
"  H ].$X`.$X`.|.=.$.+./ 6 3 l `.`.+X+X+X$X$XR k ~ [.+Xy.f.j.g.E D 9 l F f.'.6 } c.W.E.V.|.u.r.y.`.].H z S F H G r.z     ",
"  3 <X`.].&Xd.f.].H 6 3 4 z s.H y.$X[.].+Xr.r.].*X$X$X{.Z.V.V.m.T G l 3 Y a 3 / { G.M.=.].r.`.&X+Xs.l k 6 z e.3 L Z     ",
"    H H d.H e.r.H i.H 4 P oX$X].g.Z.Z.n.Q H S r.r.`.*Xj.7.^.z.q.4.r.e.k 3 k l k s w h &X`.S.n.A.S.j.s.6 r 3 Z 6 r r     ",
"    r 3 l F e.H i.F e.D P ! `.&XS.w.v.q.m.d.f.e.e.$X.Xh.N.z.E.C.<.r.e.l F r.e.e.r.J D .XT C.~.q.7.$.! k 6 D 6 3 6 6 a   ",
"  4 6 3 m e.e.D H Z 6 6 2 ! *X&XS.c.W.E.G.{.*Xf.H f.e.`.>.{ $.#.|. XD 4 i.H H H H e.a D Q 9.W.E.q.] 4 z H H F a a 4     ",
"      b   4 H k 6 l 3 3 a ! R f.2. .H.M.=.$X+Xr.f.f.r.r.r.d.[.].+X&X).l F k e.H k H 6 3 r [ D.H.%.U r.r.i.l 3   4 4     ",
"          6 b 3 3 3 4 6 l F z Y f.e U 2X$X+X$X`.&X&X+Xe.f. X].&X$X{.Y k 6 3 z z 3 6 6 t 6 r e ) e D H z r.E             ",
"        4 4 3 a a 6 t m D H H l 6 2 r.(.`.$X$X$X+X].&XK R D K ].H *X! $ a 6 3 3 4 3 4 3 r b 6 6 a m b a 4 3             ",
"            a 4   a 6 r k H r.F H D 6 l ].&Xd. X].z f.L 1 3 6 G 6 m n 7 r 8 4 4 3 4 3 a + r a   t                       ",
"            4     4     H F e.t.H i.l 4 ].f.4 H K 3 l 6 3 6 3 3 4 3 3 6 7 + r 7 4 4 q r                                 ",
"                            r.E   r.n 7 n k 3 6 6 3 3 4 6 6 6 4 6 r 7 7 7 + $ O 9 8                                     ",
"                            Z     F $ @ 8 6 6 4 3 6 6 r 9 9 r 4 r 6 8 O O + O + O                                       ",
"                                      O r 8 9 6 3 8 3 + O O 8 8 + 8 8 O + + + 0 +                                       ",
"                                          O + r 7 O + + + + + O O O + + + + + ; +                                       ",
"                                          + + 7 O + O + O + + + + + + e + + + ; +                                       ",
"                                          7 y O 7 y + + 7 O O 7 y q d d + + + 0 7                                       ",
"                                          y f + y ` d y d + O y O.d f d + + O 7 y                                       ",
"                                        + ` f y + d f f f 7 o -.O.o.O.d + + + y o.q                                     ",
"                                        + ` f y O d O.O.d + 7 O.-.;.<.f 7 + + q d $                                     ",
"                                        7 ` f e e O.:.<.f 7 e -.:.:.:.O.f 7 O + f ,.>.                                  ",
"                                        + 0 7 O y :.:.:.O.y q O.:.:.:.:.:.d + q X.4X7X*..                               ",
"                                      O y 7 + o X.:.<.:.;.f + y O.<.O.d d y O d f -.5X:._ y                             ",
"                          < < , w d d o.o.f q . o.,.:.:.:.o.e + y y d O.X.y O q d o.:.o.,.T.o.-                         ",
"                    < < < < < e R.5X,.:.<.f f + e -.O.-.O.f e + O y :.:.:.O.q + f f -.o.;.7XT.X = < <                   ",
"                < < < < < * - O.R.Y.:.-.-.f 7 y 3.O.d e d f e O 7 f M q 7 d f 7 y f f y y :.Y.f ` : < < <               ",
"            < < < < < < > y f f f O.:.O.*.d + T.7XT.-.d y y 7 + + e o.;.f 7 d 7 O y y + d M d *.:.N I < < < <           ",
"          < < < < < < : e I.I.-.d u ,.*.o.y O.5X6XY.:.;.e . h 9 + f R.7X7XY.7 O + + 9 O + e d d o.N i < < < < <         ",
"          < < < < < , ; d O.-.;.f q o.f d e $ M :.:.-.-.d N W U N f I.6X5X5Xd o 9 h U f h U 7 + 0 > , < < < < <         ",
"          < < < < < < O.-.h f f d q f d N + ` *.M O.d f y 7 U N e f -.Y.O.O.O.O < h I g I d O ; - < < < < < < <         ",
"            < < < , p ;.O.W f f + q d f W y T.Y.f e h d + O 0 > + d f M f o.y - < * * , * < < < i < < < < < <           ",
"                < < < ; > I i < > ; ; > g g :.O.y 7 y U U p * < @ U W j >.7X*.O < < < < < g U U h < < < <               ",
"                    < < < * * g i p g , * w o.d + > & h U < < < , h I O o.T.T.j h < < < < , g g < < <                   ",
"                          < < < < < < < < < i e > < < , < < < < < < , < h o.d g i < < < < < * *                         ",
"                                  < < < < < < < < < < < < < < < < < < w p & : , < < < <                                 ",
"                                              <                           <                                             "
};
